<svg id="Layer_1" data-name="Layer 1" xmlns="http://www.w3.org/2000/svg" viewBox="0 0 40 40">
  <title>clock</title>
  <path d="M20,0h0A20,20,0,0,1,40,20h0A20,20,0,0,1,20,40h0A20,20,0,0,1,0,20H0A20,20,0,0,1,20,0Z" transform="translate(0 0)" fill="#fda758" opacity="0.1" style="isolation: isolate"/>
  <path d="M20,11a9,9,0,1,0,6.36,2.64A9,9,0,0,0,20,11Zm3.2,11.61-3.6-1.8a.93.93,0,0,1-.37-.34A1,1,0,0,1,19.1,20V15.5a.9.9,0,1,1,1.8,0v3.94L24,21a.88.88,0,0,1,.45.53.89.89,0,0,1,0,.68.88.88,0,0,1-.53.45A.89.89,0,0,1,23.2,22.61Z" transform="translate(0 0)" fill="#fda758"/>
</svg>
