<svg id="Layer_1" data-name="Layer 1" xmlns="http://www.w3.org/2000/svg" viewBox="0 0 23 23">
  <title>GoogleIcon</title>
  <path d="M13.1,21.9l-.8,3L9.37,25A11.5,11.5,0,0,1,8,19.5a11.34,11.34,0,0,1,1.29-5.29h0l2.6.48L13,17.28a6.76,6.76,0,0,0-.37,2.22A6.86,6.86,0,0,0,13.1,21.9Z" transform="translate(-8 -8)" fill="#fbbb00"/>
  <path d="M30.8,17.35a11.65,11.65,0,0,1-.05,4.55,11.48,11.48,0,0,1-4.05,6.57h0l-3.28-.17L23,25.4a6.81,6.81,0,0,0,2.95-3.5H19.75V17.35H30.8Z" transform="translate(-8 -8)" fill="#518ef8"/>
  <path d="M26.7,28.47h0A11.51,11.51,0,0,1,9.37,25L13.1,21.9a6.84,6.84,0,0,0,6.4,4.44A6.73,6.73,0,0,0,23,25.4Z" transform="translate(-8 -8)" fill="#28b446"/>
  <path d="M26.84,10.65l-3.72,3a6.78,6.78,0,0,0-3.62-1A6.85,6.85,0,0,0,13,17.28L9.29,14.21h0a11.5,11.5,0,0,1,17.55-3.56Z" transform="translate(-8 -8)" fill="#f14336"/>
</svg>
