<svg id="Layer_1" data-name="Layer 1" xmlns="http://www.w3.org/2000/svg" xmlns:xlink="http://www.w3.org/1999/xlink" viewBox="0 0 534.96 896">
  <defs>
    <clipPath id="clip-path" transform="translate(60.98 0)">
      <rect width="414" height="896" fill="none"/>
    </clipPath>
    <linearGradient id="linear-gradient" x1="207" y1="740.11" x2="207" y2="547.89" gradientTransform="matrix(1, 0, 0, -1, 60.98, 893.89)" gradientUnits="userSpaceOnUse">
      <stop offset="0" stop-color="#fff3e9" stop-opacity="0"/>
      <stop offset="1" stop-color="#fff3e9"/>
    </linearGradient>
  </defs>
  <title>LoginPage</title>
  <g clip-path="url(#clip-path)">
    <g>
      <rect x="60.98" width="414" height="896" fill="#fff3e9"/>
      <path d="M474,8.91H-60.4v339H474Z" transform="translate(60.98 0)" fill="#fff3e9"/>
      <path d="M267.89,193.93l-27-29-2.43.22,0-.12-1.32.13h0l-35.08,3.38-.2,0h0l-20,31.65,1.31-.12h0l3.68,39.58,12.28-1.17v0l18.37-1.72v-.06l12.94-1.23,36.91-3.44-3.51-37.74Z" transform="translate(60.98 0)" fill="#9db0f4" opacity="0.5" style="isolation: isolate"/>
      <path d="M-35.5,211.33s-15.45-16.16,0-31,20.68-10.09,26-15.47,14.72-21.51,36.37-20.17,27.71,14.46,27.7,22.19S-35.5,211.33-35.5,211.33Z" transform="translate(60.98 0)" fill="#9bcc8f"/>
      <path d="M-32.11,207.12s26.2-66.77,30.68-88.07l2.61,7.49L13.27,105v18.83l4.37-.67S-10,212.89-9.6,246.85c0,0,.56,12.26,5.17,17.06,0,0-17.29,1.53-24.48.47s-10.44-7.64-16.71-12.92S-35.85,231.29-32.11,207.12Z" transform="translate(60.98 0)" fill="#c18a65"/>
      <path d="M443.59,118.7S431.94,90,412.23,92.25s-21.93.9-36.27-5.38-33.89.45-26.58,15.92,29.54,54,19.55,63,15.09,48.43,29.87,62.1S474,229.71,474,229.71V165.78s-8.9-12.61-23.22-19.31S447.88,127,443.59,118.7Z" transform="translate(60.98 0)" fill="#9bcc8f"/>
      <path d="M249.88,204.78c-.45-.67-7.17-10.08-13.44-9.41s-10.52,5.6-18.58,2-18.86-4.48-23.2,1.79,5.82,15.61,2.86,21.26,10.26,23,22.12,24.08,37.62-15.14,36.5-25S249.88,204.78,249.88,204.78Z" transform="translate(60.98 0)" fill="#9bcc8f"/>
      <path d="M178.86,157.32l-16.4,5-.14.06-16.63,5.1a1.06,1.06,0,0,0-.39.21,1.16,1.16,0,0,0-.28.34,1,1,0,0,0-.12.42,1.08,1.08,0,0,0,0,.44s0,.09.05.13l0,.13,6.92,22.61a1.3,1.3,0,0,0,1.6.85l6.09-1.87a1.3,1.3,0,0,0,.85-1.6l-6.68-21.79,4.45-1.36,18.47,60.36a2.63,2.63,0,0,0-.9,1.27,2.59,2.59,0,0,0,0,1.56l5.77,18.85a6.22,6.22,0,0,0,2.65-.32,5.68,5.68,0,0,0,2.38-1.22l-5.81-19a2.46,2.46,0,0,0-.87-1.25,2.52,2.52,0,0,0-1.45-.51L160,165.47l2.19-.67L166.86,180a.87.87,0,0,0,.17.33,1.09,1.09,0,0,0,.29.23.94.94,0,0,0,.36.11.92.92,0,0,0,.37,0l16.4-5a1.06,1.06,0,0,0,.33-.18.85.85,0,0,0,.24-.29.89.89,0,0,0,.11-.35,1,1,0,0,0,0-.38l-5-16.41a1,1,0,0,0-.18-.33,1,1,0,0,0-.66-.35A.92.92,0,0,0,178.86,157.32Z" transform="translate(60.98 0)" fill="#9db0f4" opacity="0.5" style="isolation: isolate"/>
      <path d="M420,146.62l9.77,105.1-58.68,5.47L360.54,143.57l.86-.09L403.63,139l4.24.82C409.47,142.19,418.7,144.23,420,146.62Z" transform="translate(60.98 0)" fill="#fff3e9"/>
      <path d="M368.15,95.3c2.28,1.11,4.57,2.36,6.87,3.72l-7,18.6-9.82,26.17-2.23,6-.69,1.84-80.58,7.5,4.9-7.75.16-.25,31.65-50.56.23.19,24.28-2.34,32.2-3.1Z" transform="translate(60.98 0)" fill="#ed9f4a"/>
      <path d="M375,99c-2.3-1.36-4.59-2.61-6.87-3.72L336,98.39l-21.12,2-1.44,2.29-35.5,56.09,2.4-.23,9.87,106.16,80.94-7.54L360.7,145.33l.69-1.83h0l9.14-24.35,7-18.58C376.68,100,375.85,99.51,375,99Z" transform="translate(60.98 0)" fill="#f9ddbf"/>
      <path d="M361.52,154.09l-1.5.11-2.56-2.82L356,149.74l-4.8-5.31L313.39,102.7l-1.76-1.94-.21-.23,24.35-2.26s12.88-1.18,38.85-3.6l47.87,54Z" transform="translate(60.98 0)" fill="#ed9f4a"/>
      <path d="M303.52,136.11l-1.16.1a7.18,7.18,0,0,0-6.48,7.82l1.69,18.17,15.22-1.41-1.72-18.4a6.94,6.94,0,0,0-7.55-6.28Z" transform="translate(60.98 0)" fill="#efcdaf"/>
      <path d="M303.48,135.67l-1.16.11a7.63,7.63,0,0,0-6.89,8.3l1.74,18.62,16.11-1.5-1.75-18.85a7.4,7.4,0,0,0-8-6.68Zm-1.08,1,1.16-.1a6.5,6.5,0,0,1,7.07,5.87l0,.24L296.32,144a6.74,6.74,0,0,1,6.08-7.34Zm-6,8.46,6.44-.6,1.55,16.61-6.44.6Zm9.13,15.9L304,144.41l6.75-.62,1.54,16.61Z" transform="translate(60.98 0)" fill="#fff3e9"/>
      <path d="M327.14,133.91,326,134a7.17,7.17,0,0,0-6.48,7.82L321.19,160l15.22-1.42-1.71-18.41a7,7,0,0,0-7.56-6.27Z" transform="translate(60.98 0)" fill="#efcdaf"/>
      <path d="M327.1,133.47l-1.16.1a7.65,7.65,0,0,0-6.89,8.31l1.74,18.62,16.1-1.5-1.75-18.85a7.39,7.39,0,0,0-8-6.68Zm-1.08,1,1.16-.11a6.55,6.55,0,0,1,4.75,1.48,6.48,6.48,0,0,1,2.32,4.4l0,.23-14.33,1.34a6.74,6.74,0,0,1,6.08-7.34Zm-6,8.46,6.43-.6L328,158.93l-6.44.6Zm9.12,15.9-1.54-16.61,6.75-.63,1.54,16.61Z" transform="translate(60.98 0)" fill="#fff3e9"/>
      <path d="M312.54,171l-15.27,40.67L239.91,217l26.3-41.56Z" transform="translate(60.98 0)" fill="#ed9f4a"/>
      <path d="M314.26,170.81,299,211.48l-57.37,5.35,26.31-41.56Z" transform="translate(60.98 0)" fill="#f9ddbf"/>
      <path d="M298.87,211.49l4.82,51.87-57.23,5.44-4.83-52Z" transform="translate(60.98 0)" fill="#f9ddbf"/>
      <path d="M347.34,207l-48.47,4.52,4.83,51.87,48.47-4.52Z" transform="translate(60.98 0)" fill="#fff3e9"/>
      <path d="M352.88,208.78l-52.07,4.85-34.6-38.2L281.72,174l35.67-3.31Z" transform="translate(60.98 0)" fill="#ed9f4a"/>
      <path d="M282.68,221.72l4,43.33-24.12,2.25-4-42.94A12.33,12.33,0,0,1,269.72,211a11.93,11.93,0,0,1,13,10.77Z" transform="translate(60.98 0)" fill="#efcdaf"/>
      <path d="M352.88,208.78l-3.4.32-51-36.68,18.87-1.75Z" transform="translate(60.98 0)" fill="#e58638"/>
      <path d="M269.79,212.48a10.29,10.29,0,0,0-3.91,1.16,10.41,10.41,0,0,0-3.17,2.58,10.18,10.18,0,0,0-1.94,3.59,10.32,10.32,0,0,0-.42,4.06l3.86,41.55,20.5-1.91-3.9-41.88a10.12,10.12,0,0,0-1.12-3.8,10.26,10.26,0,0,0-2.49-3.07,10.1,10.1,0,0,0-7.41-2.28Z" transform="translate(60.98 0)" fill="#fff3e9"/>
      <path d="M279.47,221.89l0,.37-17.72,1.64v-.06A9.06,9.06,0,0,1,270,214a8.74,8.74,0,0,1,9.52,7.91Z" transform="translate(60.98 0)" fill="#f9ddbf"/>
      <path d="M269.91,213.61a9.45,9.45,0,0,0-8.51,10.26l0,.44,18.47-1.72-.07-.73a9.14,9.14,0,0,0-9.93-8.25Zm-7.79,9.88a8.59,8.59,0,0,1,.47-3.37,8.73,8.73,0,0,1,1.73-2.92,5.21,5.21,0,0,1,.52-.53,8.62,8.62,0,0,1,5.14-2.33,8.37,8.37,0,0,1,5.12,1.18,6.58,6.58,0,0,1,.61.42,8.32,8.32,0,0,1,3.39,6Z" transform="translate(60.98 0)" fill="#efcdaf"/>
      <path d="M278.68,244.08a.68.68,0,0,1,.07-.37.57.57,0,0,1,.26-.25.59.59,0,0,1,.37-.07.58.58,0,0,1,.33.14.66.66,0,0,1,.21.31.73.73,0,0,1,0,.36.66.66,0,0,1-.21.31.64.64,0,0,1-.34.14.54.54,0,0,1-.25,0,.65.65,0,0,1-.22-.11.75.75,0,0,1-.15-.2A.62.62,0,0,1,278.68,244.08Z" transform="translate(60.98 0)" fill="#efcdaf"/>
      <path d="M275.92,215.6l-.21.35-4.07,6.66-.49.79-.35,0-.7-.67-5.78-5.56-.27-.26.51-.53.28.26,6,5.79,4.24-6.93.19-.31Z" transform="translate(60.98 0)" fill="#efcdaf"/>
      <path d="M283.56,225.27l-22.8,2,.16,1.7L283.71,227Z" transform="translate(60.98 0)" fill="#efcdaf"/>
      <path d="M283.11,262.06l-17.53,1.63-3.28-35.22,17.54-1.63Zm-17.36,1.43,17.16-1.6L279.67,227l-17.16,1.6Z" transform="translate(60.98 0)" fill="#efcdaf"/>
      <path d="M133.07,65.22-60.41,63.58V47.45l1.76.1s40.07-29.45,82.81-3.92c0,0,45.43-6.33,79.07,5.47C125.66,57,133.07,65.22,133.07,65.22Z" transform="translate(60.98 0)" fill="#f8fcff" opacity="0.4" style="isolation: isolate"/>
      <path d="M219.3,63.54s8.22-15.19,27.93-13.5c0,0,28.59-25.3,59.09-3.37,0,0,32.41-5.44,56.41,4.7,16,6.76,21.29,13.85,21.29,13.85Z" transform="translate(60.98 0)" fill="#f8fcff" opacity="0.4" style="isolation: isolate"/>
      <path d="M57.87,103.83S64.31,94,79.7,95.07c0,0,22.35-16.42,46.18-2.19,0,0,25.33-3.53,44.09,3.05,12.51,4.39,16.63,9,16.63,9Z" transform="translate(60.98 0)" fill="#f8fcff" opacity="0.4" style="isolation: isolate"/>
      <path d="M425.27,242.77s-14.66-.37-14.29-14.41,5-14.27,4.93-19.22-3.08-16.83,7.61-26.21,19.58-6.1,23.15-2.49S425.27,242.77,425.27,242.77Z" transform="translate(60.98 0)" fill="#9bcc8f"/>
      <path d="M424.9,239.25s-18.63-43.22-26.38-55.2l4.67,2.28-4.34-15.64,8.69,8.76,1.73-2.33s28.6,54.58,44.45,70.21c0,0,5.93,5.45,10.29,5.55,0,0-7.34,8.71-11.18,11.55s-8.39,1.27-13.75,1.71S434.33,252.22,424.9,239.25Z" transform="translate(60.98 0)" fill="#c18a65"/>
      <path d="M372.31,191.25s18.11,12.12,37.92,15.45L408,202.09s-13.36,0-29.67-8.56Z" transform="translate(60.98 0)" fill="#c18a65"/>
      <path d="M383.77,194.12a18.24,18.24,0,0,1-4.11,6.29c-3.27,3.52-7.15,2.12-11.3.58s-3.63-9.65.4-12.4a118.77,118.77,0,0,1,12.91-7.86c3.88-1.93,12.67,1.22,12.86,6.56s-3.84,6.44-6.4,7.32S384.36,192.74,383.77,194.12Z" transform="translate(60.98 0)" fill="#9bcc8f"/>
      <path d="M474,209.67v138.2H-60.41l-.57-123s27.61-29.58,71.1-50.17c48.7-23.06,114.39-36.4,124.76-15.61,14.6,29.27-43.77,29.88-18.69,65.78s90.14-15.11,167.56,8q2.72.81,5.34,1.56c53.85,15.38,83.54,13.23,104.53,5.66,1.65-.59,3.24-1.22,4.78-1.87.78-.33,1.55-.67,2.31-1l.15-.07,2.53-1.19q2.12-1,4.14-2.12c.64-.34,1.28-.69,1.9-1,18.37-10.21,31.83-22.73,58.69-23.22C470,209.56,472,209.58,474,209.67Z" transform="translate(60.98 0)" fill="#94b3f7"/>
      <path d="M-21,290.78,143.5,268.89l54.87-12.41S185.14,233,182.38,233-19.76,259.91-19.76,259.91Z" transform="translate(60.98 0)" fill="#1d2949"/>
      <path d="M222.45,255.89c-3.88,2.22-28.57,5.89-28.57,5.89s-3.47-30.43-28.48-23.5-17.22,31.53-17.22,31.53L26,288.31S23.7,256.05-2.91,263c-22.1,5.78-12.91,30.73-12.91,30.73-22.25,4.14-25.57-3.17-25.57-3.17l-.43-3.13,1.41-.19-1.1-8.27-1.4.18-.82-6.18,3.27-11.43c6.13-14.71,67.89-26.72,67.89-26.72,8.73-6.7,16-11.78,21.77-15.54,9.16-6,19.71-12,30.35-14.54a246.74,246.74,0,0,1,59.32-6.53c7,.2,43.63,10.67,46.41,11.63s24.25-.1,27-.13a3,3,0,0,1,3,2.71l.7,2.38,2.65,9,.65,2.2c2.12.73,2.5,3.57,2.5,3.57S226.31,253.67,222.45,255.89Z" transform="translate(60.98 0)" fill="#2b478b"/>
      <path d="M-15.51,285A19.11,19.11,0,0,1-13.72,274a19,19,0,0,1,28.65-6.73,19.07,19.07,0,0,1,1,29.44,19,19,0,0,1-24.14.82A19.11,19.11,0,0,1-15.51,285Z" transform="translate(60.98 0)" fill="#2c3a64"/>
      <path d="M5.32,297.21A14.87,14.87,0,0,1-9.52,289.9a14.9,14.9,0,0,1,8.08-21.56,14.8,14.8,0,0,1,8.64-.29,14.82,14.82,0,0,1,7.34,4.55,14.91,14.91,0,0,1-9.22,24.61ZM1.58,269a13.46,13.46,0,0,0-7.14,3.25A13.61,13.61,0,0,0-9.69,279a13.55,13.55,0,0,0,.27,7.85,13.43,13.43,0,0,0,4.58,6.37,13.45,13.45,0,0,0,15,1,13.47,13.47,0,0,0,5.36-5.73A13.53,13.53,0,0,0,1.58,269Z" transform="translate(60.98 0)" fill="#afcdfb"/>
      <path d="M7.75,296.21l-5.28.7-.23-14.73-3.77-13.51,6.09-.43-.23,13.67Z" transform="translate(60.98 0)" fill="#afcdfb"/>
      <path d="M-6.39,293.11l-3.25-4.23L3,281.31l9.81-10,3.42,5.06L4.28,283Z" transform="translate(60.98 0)" fill="#afcdfb"/>
      <path d="M-10.45,278.72l2.31-4.81,12.42,7.9,13.36,4.28-3,5.33L3.37,283.71Z" transform="translate(60.98 0)" fill="#afcdfb"/>
      <path d="M-1.59,283.08a5,5,0,0,1,7.94-4.61A5,5,0,0,1,8,280.82a5,5,0,0,1,.1,2.88,5.07,5.07,0,0,1-1.52,2.45A5,5,0,0,1,4,287.35a5,5,0,0,1-1.93-.13,4.92,4.92,0,0,1-3-2.31A4.79,4.79,0,0,1-1.59,283.08Z" transform="translate(60.98 0)" fill="#afcdfb"/>
      <path d="M151.78,262.68a19,19,0,1,1,21.38,16.38,19.05,19.05,0,0,1-21.38-16.38Z" transform="translate(60.98 0)" fill="#2c3a64"/>
      <path d="M172.61,274.94a14.91,14.91,0,1,1,9.86-5.72A14.86,14.86,0,0,1,172.61,274.94Zm-3.74-28.18a13.55,13.55,0,1,0,10,2.68,13.43,13.43,0,0,0-10-2.68Z" transform="translate(60.98 0)" fill="#afcdfb"/>
      <path d="M175,273.94l-5.29.7-.23-14.72-3.76-13.52,6.09-.43-.24,13.67Z" transform="translate(60.98 0)" fill="#f9ddbf"/>
      <path d="M160.9,270.84l-3.25-4.23,12.63-7.56,9.81-10,3.42,5.07-11.95,6.63Z" transform="translate(60.98 0)" fill="#f9ddbf"/>
      <path d="M156.83,256.45l2.32-4.81,12.42,7.9,13.35,4.28-3,5.33-11.28-7.71Z" transform="translate(60.98 0)" fill="#f9ddbf"/>
      <path d="M165.69,260.81a5,5,0,1,1,9.72.62,5,5,0,0,1-4.14,3.65,5,5,0,0,1-5-2.44A5,5,0,0,1,165.69,260.81Z" transform="translate(60.98 0)" fill="#f9ddbf"/>
      <path d="M167.32,214.4l-62.77,9.88a2.17,2.17,0,0,1-1.68-.41,2.24,2.24,0,0,1-.87-1.49l-1.93-14.52a2.13,2.13,0,0,1,.42-1.54,2,2,0,0,1,.61-.53,2,2,0,0,1,.78-.25c26.9-3.21,36.2-3.68,42-2.51,5.09,1,17.39,6.43,23.74,9.15a1.16,1.16,0,0,1,.56.49,1.15,1.15,0,0,1,.14.73,1.11,1.11,0,0,1-.32.66A1.14,1.14,0,0,1,167.32,214.4Z" transform="translate(60.98 0)" fill="#afcdfb"/>
      <path d="M94.31,206.45l3-.37L99.83,225l-60.57,9.54a.76.76,0,0,1-.49-.08.74.74,0,0,1-.35-.37.73.73,0,0,1-.06-.5.75.75,0,0,1,.25-.44C45.08,227.43,66.92,209.77,94.31,206.45Z" transform="translate(60.98 0)" fill="#afcdfb"/>
      <path d="M167.11,214.43h0l-.35-2.63.67.29a1.22,1.22,0,0,1,.59.51,1.28,1.28,0,0,1,.16.77,1.32,1.32,0,0,1-.34.7A1.22,1.22,0,0,1,167.11,214.43Z" transform="translate(60.98 0)" fill="#afcdfb"/>
      <path d="M102.41,225.46l-7.52.4L92.7,205.53l6.94-.92Z" transform="translate(60.98 0)" fill="#2b478b"/>
      <path d="M149.54,219.19l-3.48.46-2.41-18.2,3.75,1.63Z" transform="translate(60.98 0)" fill="#2b478b"/>
      <path d="M46,227.18l2.67,5.9-10.11,1.59a.62.62,0,0,1-.37-.07.57.57,0,0,1-.26-.27.52.52,0,0,1,0-.37.57.57,0,0,1,.18-.34C40.12,231.67,44,228.17,46,227.18Z" transform="translate(60.98 0)" fill="#2c3a64"/>
      <path d="M46,227.18l2.67,5.9-10.11,1.59a.62.62,0,0,1-.37-.07.57.57,0,0,1-.26-.27.52.52,0,0,1,0-.37.57.57,0,0,1,.18-.34C40.12,231.67,44,228.17,46,227.18Z" transform="translate(60.98 0)" fill="#2c3a64"/>
      <path d="M218.71,223.85l-11.86,1.58a5.74,5.74,0,0,1-4.81-1.6l-5.24-5.1a.83.83,0,0,1-.21-.86.86.86,0,0,1,.26-.37.81.81,0,0,1,.41-.19l18.8-2.5Z" transform="translate(60.98 0)" fill="#a9453d"/>
      <path d="M147.05,263.81,24.61,282.39l.07.49,122.45-18.57Z" transform="translate(60.98 0)" fill="#1d2949"/>
      <path d="M93.78,239.24c.09.67-2.84,1.62-6.54,2.11s-6.76.35-6.85-.33,2.83-1.61,6.53-2.11S93.69,238.57,93.78,239.24Z" transform="translate(60.98 0)" fill="#2c3a64"/>
      <path d="M156.15,230.94c.09.67-2.84,1.62-6.54,2.11s-6.76.35-6.86-.33,2.84-1.62,6.54-2.11S156.06,230.27,156.15,230.94Z" transform="translate(60.98 0)" fill="#2c3a64"/>
      <path d="M39.77,279.76a267.39,267.39,0,0,1-3-34.59,83.17,83.17,0,0,1,.39-10.83l.5.07c0,.13-1.88,14,2.65,45.29Z" transform="translate(60.98 0)" fill="#1d2949"/>
      <path d="M-53.11,248.34s72.56-34.66,128.53-5.26,62.33,33.2,105.51,21.67,78.12,1.74,85.52,21.1,0,47.61,0,47.61H-41.41Z" transform="translate(60.98 0)" fill="#94b3f7"/>
      <path d="M-27,196.45s42.92-22.8,75.49-14.4,19.09-12.44,17.93-18.15,42.85,7.06,50.24-1.35S100.51,152.18,104.39,151s26.94,11.23,30.49,8.16-.48-15.63-18.24-17.72S27.32,138.81-27,196.45Z" transform="translate(60.98 0)" fill="#e9f0ff"/>
      <path d="M468.13,209.59a1.52,1.52,0,0,1-1.26.67c-4.92.67-13.88,4.16-22.39,9.31s10.53.68,9.63,5.55S429.25,229,417.16,238s-39,8.36-42.85,10.15,5.53,2.54.45,5.83-29.56-7.17-35-7.12,7.84,1.74-5.89,2.2S289,234.47,289,234.47h.08c53.86,15.38,83.54,13.23,104.53,5.66q2.47-.9,4.78-1.87c.78-.34,1.55-.67,2.31-1l.15-.06c.86-.39,1.7-.79,2.53-1.2,1.41-.69,2.79-1.39,4.14-2.12l1.9-1C427.8,222.6,441.26,210.08,468.13,209.59Z" transform="translate(60.98 0)" fill="#fff"/>
      <path d="M392.26,227.16l-2.24.43,0-.18-.48-6.12a.35.35,0,0,1,.08-.26.36.36,0,0,1,.23-.15h.07a.64.64,0,0,1,.4.11.6.6,0,0,1,.23.33Z" transform="translate(60.98 0)" fill="#233862"/>
      <path d="M390,226.19l-.08,0-.36-4.91a.42.42,0,0,1,.07-.27.37.37,0,0,1,.24-.14h.07l.07,0a.62.62,0,0,1,.24.37l.7,3.44a1.24,1.24,0,0,1-.95,1.45Z" transform="translate(60.98 0)" fill="#2b478b"/>
      <path d="M417.16,347.87h-4.48l-17.42-89.76-.14-.75-.1-.48-.49-2.54,2-.39,2.32-.45.39,2,.1.55.24,1.23Z" transform="translate(60.98 0)" fill="#233862"/>
      <path d="M414.75,347.87h-2.07l-17.42-89.76-.14-.75-.1-.48-.49-2.54,2-.39.49,2.54h0v0l.24,1.2Z" transform="translate(60.98 0)" fill="#2b478b"/>
      <path d="M399.61,228.72c.45,2.36-2.72,5-7.08,5.81-.34.06-.67.12-1,.16-4,.49-7.33-.72-7.75-2.9s2.25-4.56,6.1-5.58c.32-.08.65-.16,1-.22C395.24,225.14,399.15,226.36,399.61,228.72Z" transform="translate(60.98 0)" fill="#233862"/>
      <path d="M395.51,229.51c.37,1.91-1.29,3.92-4,5.18-4,.49-7.33-.72-7.75-2.9s2.25-4.56,6.1-5.58C392.85,226.36,395.14,227.61,395.51,229.51Z" transform="translate(60.98 0)" fill="#2b478b"/>
      <path d="M404.29,256.35,390.52,259l-9.38-22.44,22.72-4.42Z" transform="translate(60.98 0)" fill="#2b478b"/>
      <path d="M404.74,230.18l-25.18,4.9.44,2.24,25.17-4.89Z" transform="translate(60.98 0)" fill="#233862"/>
      <path d="M395.39,232l-15.83,3.08.44,2.24,15.82-3.08Z" transform="translate(60.98 0)" fill="#2b478b"/>
      <path d="M383,237.41l19.41-3.77.29,21.75-11.15,2.17Z" transform="translate(60.98 0)" fill="#5072b5"/>
      <path d="M403.14,230.48l-22,4.27,1.3-2.91,18.45-3.59Z" transform="translate(60.98 0)" fill="#233862"/>
      <path d="M397.73,231.53l-16.55,3.22,1.3-2.91,13-2.54Z" transform="translate(60.98 0)" fill="#2b478b"/>
      <path d="M61.9,254.78s2.37-1.55,2.79-2.48,2.06-2.64,1.49-3-1.64,1.08-2.32.93-1.23-5-2-5a2.78,2.78,0,0,0-2.58,2.64c0,1.81.57,6.47,0,7.34S61.9,254.78,61.9,254.78Z" transform="translate(60.98 0)" fill="#ffb27d"/>
      <path d="M125.37,256.06c0-.1.13-3.92,1.37-5.16s3.84-3.11,4.24-2.31-1.76,3.1-1.7,3.91,1.44-1.24,1.57-.75-1,3.69-1.73,3.92-.93,2.68-.93,2.68l-3.67-.85Z" transform="translate(60.98 0)" fill="#ffb27d"/>
      <path d="M67.09,304.31c15.46,14.46,12.74-13.08,12.74-13.08s-5.89-2.62-7.74-2.62-3.22-5.17-9.1-13.79l.5-20.56-4.15-.59c-1,.22-3.92,15.1-5.55,18.74C53.79,272.42,53.49,291.59,67.09,304.31Z" transform="translate(60.98 0)" fill="#ffb27d"/>
      <path d="M80.25,263.61l0,0Z" transform="translate(60.98 0)" fill="#7f2722"/>
      <path d="M128.7,257.05a38.15,38.15,0,0,1-3.08,10.64,65.65,65.65,0,0,1-5.16,9.6c0,.06-.21,1.08-.7,2.74-4.18,14.58-13.82,23.71-15.88,25.06a4,4,0,0,0-.8.68,6,6,0,0,0-1.36,3.69c.19,4.3.2,9.6.21,14.87H67.25c.17-2.12.33-4,.42-5.34,0,0-.26-7.6-.16-14.3.07-4.8.33-9.13,1-9.85,2-2.07,10.06-3.41,11.19-3.59l.13,0c4.66,2.62,10.93-.92,10.93-.92l.41.09c.47-.1,6.34-1.34,8.09-1s4.2-4.41,11.71-11.64c0,0,10-16.9,14.17-21.71C125.17,256.07,128.7,257,128.7,257.05Z" transform="translate(60.98 0)" fill="#ffb27d"/>
      <path d="M68.62,282.31s-8.32,9.63-8.53,18.37c0,0,5.17,3.37,5.28,5.27S66.65,337,66.65,337h35.41s0-27,2-29.48,7.17-8.41,7.17-8.41-.69-9.86-7.35-13.78c0,0-4,3.33-6.82,3.9s-18.58,1.33-19.26.89S68.62,282.31,68.62,282.31Z" transform="translate(60.98 0)" fill="#f99746"/>
      <path d="M81.64,293.21c2.12,1.12,8.58-.76,8.88-1.83s-1.1-3.12-.26-9.33a4.35,4.35,0,0,0-1.53.25c-2.75.66-8.3,2.23-8.55,2.3,0,0-.07,1.3-.29,3.64,0,.21,0,.43-.07.65s0,.56-.09.86A3.51,3.51,0,0,0,81.64,293.21Z" transform="translate(60.98 0)" fill="#ffb27d"/>
      <path d="M79.88,288.25c4.12.95,10.27-5.14,10.27-5.14a6.56,6.56,0,0,0-1.41-.8c-2.76.65-8.31,2.23-8.56,2.3C80.18,284.61,80.11,285.91,79.88,288.25Z" transform="translate(60.98 0)" fill="#ed975d"/>
      <path d="M78.48,284.28a21.11,21.11,0,0,0,3.85.9c3.16.42,7.31.18,8.62-3.65,2.19-6.44,5-10.3-1.47-12.93-3.46-1.4-5.66-1.48-7.18-.94a5.26,5.26,0,0,0-2.66,2.3C78.39,271.93,75.86,283.15,78.48,284.28Z" transform="translate(60.98 0)" fill="#ffb27d"/>
      <path d="M85.09,271.23c1.61.72,1.89,3.42,1.92,4.28s.15,1.58,2.33,1.07a1,1,0,0,1,.79,0c.91.54-.25,3.15-.6,3.71,0,0-.5,1.87.61,2.78.14.11,2.33,1.07,7.61-7a7.52,7.52,0,0,0,.34-6.88c-1.28-2.76-6.26-4.91-11-5.63-1.76-.27-6.6.81-7.47,2.38C78.13,268.58,83.48,270.52,85.09,271.23Z" transform="translate(60.98 0)" fill="#a9453d"/>
      <path d="M80.31,280.74c-.16.53-.55.89-.86.79s-.43-.6-.27-1.14.55-.89.86-.79S80.47,280.21,80.31,280.74Z" transform="translate(60.98 0)" fill="#fff"/>
      <path d="M221.41,319.57s19.05-7.85,48.94-1.4,67.16-5.66,74.23.22a18.33,18.33,0,0,1,6.4,14.44H220Z" transform="translate(60.98 0)" fill="#aec3ff"/>
      <path d="M462.7,289.4l-54.28,50.43-1.7-4.15-8.08,3.17.3-2.93L396.26,333l56.56-56.2,7.36,3.14-1.35,2.7,4.48,3.51Z" transform="translate(60.98 0)" fill="#f99746"/>
      <path d="M195.46,282l96.21-32.37v5.57l12,.15-1.91,3.22,1.91,4.6L201.54,301.09,193.73,294l3.15-2.45-3.9-6.14Z" transform="translate(60.98 0)" fill="#f99746"/>
      <path d="M286.44,293.34s3.14-13.12,1.73-16.38-16.74-15-16.74-15l-3.18,2.38s8,10,7.42,12.34,1.16,15.44,1.16,15.44Z" transform="translate(60.98 0)" fill="#963333"/>
      <path d="M281.22,288.84l-3,3.25-6.55.89c-.08-.52-.36-2.72-.61-4.72,0-.12,0-.24,0-.35l-.39-3.16,4.93-4.45,1.82-1.66a27.43,27.43,0,0,1,2.25,2.91C278.78,288.05,281.22,288.84,281.22,288.84Z" transform="translate(60.98 0)" fill="#ffb27d"/>
      <path d="M271.33,289.05c.12-.07,7.45-3.33,8.32-3.17s1.57,1.71,1.57,1.71l-12.11,4.48A6.24,6.24,0,0,1,271.33,289.05Z" transform="translate(60.98 0)" fill="#963333"/>
      <path d="M298.67,337.59c-.52,6.08-22,9.63-28.22,5-.71-.53-1.11-3.37-1.38-7.24-.53-7.55-.52-19-1.23-24.78a47.32,47.32,0,0,1-.17-8.33,67.38,67.38,0,0,1,1.44-10.19s10.06-4.8,12.11-4.48C291.07,289.12,299.19,331.52,298.67,337.59Z" transform="translate(60.98 0)" fill="#b64c41"/>
      <path d="M277.44,281c-.54,2.56-4.65,6-6.39,7.32,0-.12,0-.24-.05-.35l-.38-3.16,4.92-4.45C276.8,279.86,277.67,279.89,277.44,281Z" transform="translate(60.98 0)" fill="#fca56b"/>
      <path d="M269.49,284.63s9.78,3.05,11.59-3.07,4.28-9.86-1.89-12.07-8.07-.23-9.17,1.67S267,283.68,269.49,284.63Z" transform="translate(60.98 0)" fill="#ffb27d"/>
      <path d="M270.4,270.57s.63,7.14,2.1,6.82,2.81-.55,2.59,1.61-1.75,6.16,2.78,6.54,10.56-12.87,9.31-15.09C283.59,264.06,265.2,262.77,270.4,270.57Z" transform="translate(60.98 0)" fill="#163560"/>
      <path d="M249,290.5c-3.62-1.73-14.49-8.18-14.49-8.18l-2.52,3.07s9,13.15,16.54,15.51,22.61,3.48,22.61,3.48l4.3-15.07S252.57,292.23,249,290.5Z" transform="translate(60.98 0)" fill="#b64c41"/>
      <path d="M234.46,282.32s.24-6.12-.39-6.22-1.1,3.25-1.58,3.11-1.64-5.5-2.52-5.34-2.05,4.89-1.34,6.38a56.12,56.12,0,0,0,3.31,5.15Z" transform="translate(60.98 0)" fill="#ffb27d"/>
      <path d="M268.25,264.28s-6.12,0-6.19-.68,3.29-1,3.18-1.43-5.42-1.91-5.22-2.77,5-1.82,6.44-1a55.82,55.82,0,0,1,5,3.55Z" transform="translate(60.98 0)" fill="#ffb27d"/>
      <path d="M474,300.91v47H-60.41V293.44s41.64-57.25,80.09-46.85c21,5.67,17.32,24.89,19.56,41.63,1.88,14,7.85,26.24,35.69,27.41,61.14,2.56,98.43-16.7,131.86.67,13.85,7.19,26.5,5.49,41.56,1.46,21.26-5.67,47.33-15.92,88.38-12.12C406.84,312.13,461.16,328.7,474,300.91Z" transform="translate(60.98 0)" fill="#7187e2"/>
      <path d="M380,296.57l-37.49-10.2-8.4,30.95,37.49,10.19Z" transform="translate(60.98 0)" fill="#ed823a"/>
      <path d="M361.2,291.47l-37.48-10.2-8.4,31,37.49,10.19Z" transform="translate(60.98 0)" fill="#ff9e55"/>
      <path d="M373.69,319.64,367.75,318l1-1.53-.2-1.34,5.94,1.62Z" transform="translate(60.98 0)" fill="#dd732c"/>
      <path d="M358.63,301l-5.94-1.62,1-1.53-.2-1.34,5.94,1.62Z" transform="translate(60.98 0)" fill="#ffb27d"/>
      <path d="M359.41,298.16l5.94,1.61-1,1.53.2,1.34L358.63,301Z" transform="translate(60.98 0)" fill="#dd732c"/>
      <path d="M317.38,304.68l5.94,1.62-1,1.53.19,1.34-5.94-1.62Z" transform="translate(60.98 0)" fill="#ffb27d"/>
      <path d="M404.94,327.87c-1.28-1.37-58.11-23.88-89.24-13.39s-51,15.44-51,15.44l112.86,11.72Z" transform="translate(60.98 0)" fill="#7187e2"/>
      <path d="M-26.84,320.16,9.5,311.27l-7.32-30-36.34,8.89Z" transform="translate(60.98 0)" fill="#c3dafc"/>
      <path d="M-8.67,315.71l36.33-8.88-7.32-30L-16,285.72Z" transform="translate(60.98 0)" fill="#d4e4f8"/>
      <path d="M25.88,299.55,20.12,301l.9,1.49-.22,1.29,5.76-1.41Z" transform="translate(60.98 0)" fill="#618dc1"/>
      <path d="M19.05,278.77,8.61,281.36l1,4.07,10.44-2.59Z" transform="translate(60.98 0)" fill="#fff"/>
      <path d="M-51.09,321.78C-50,320.56.53,300.57,28.19,309.89S73.48,323.6,73.48,323.6L-26.79,334Z" transform="translate(60.98 0)" fill="#7187e2"/>
      <path d="M188.83,327.33c-.36,4-40-9.27-45.62-9.72s2.67,3,3.86,8.84-50.59-.17-79.82-2.11-28-36.13-28-36.13c1.87,14,7.84,26.25,35.68,27.42,61.14,2.56,98.43-16.7,131.86.67,13.85,7.19,26.5,5.49,41.56,1.46-28.48,12.85-61.85-4.94-73.34-3.14S189.19,323.3,188.83,327.33Z" transform="translate(60.98 0)" fill="#e9f0ff"/>
      <path d="M-50,281s27.63-46.15,51.48-47.14,39.05,8.5,30.31,8.11-17.78,2.5-12.08,4.65,14.74,6.62,3.89,8-29.67-.8-36.36,6.64,14-2.68,7.66,4.76S-29.25,271.31-50,281Z" transform="translate(60.98 0)" fill="#e9f0ff"/>
      <rect x="60.98" width="414" height="692" fill="url(#linear-gradient)"/>
    </g>
  </g>
</svg>
