<svg id="Layer_1" data-name="Layer 1" xmlns="http://www.w3.org/2000/svg" viewBox="0 0 750 750">
  <title>Message Sent</title>
  <rect width="750" height="750" style="fill: #fff"/>
  <path d="M300.67,570.68c104.76,29.46,155.73-83.59,245.48-75,49.14,4.7,147.07,28.57,146.85-145.26-.55-112.22-104-140.32-210.65-82.77-31.39,12.28-56.17,8.47-83.07-3.72s-61.51-66.65-126.73-77.85C76.29,152.38-91.63,460.36,300.67,570.68Z" transform="translate(0 0)" style="fill: #ffb61d;fill-rule: evenodd"/>
  <path d="M549.61,288.35c2-1,5.49.89,3.44,3.87-4.52,6.61,13,19.8,7.37,8.18-.6-1.25-3.69-9.84.68-5.4s10.44,24,6.51,30.8c-3.45,5.93-12.59,8.75-25.06,9.08H542l-.27,0c-7.35.34-12.93-4.21-16.52-13.07l-.18-.43c-3.64-9.28-2.64-16.71,3.25-21.72a2,2,0,0,1,.34-.25l.19-.1Z" transform="translate(0 0)" style="fill: #fff;fill-rule: evenodd"/>
  <path d="M152.43,114.76a4,4,0,0,0-3.74-1.73,3.89,3.89,0,0,0-3.25,2.7l-.12.39-.34,1c-.37,1-.82,2.23-1.36,3.49A63.32,63.32,0,0,1,138,131.11c-4.82,7.2-10.62,12.21-17.41,14.14a2,2,0,0,0-1.38,2.47c.15.54,10.08,5.5,20.21,4.25,9.83-1.22,19.88-8.63,20-9.13l.12-1.05,0-.35a39.42,39.42,0,0,0-5.77-24.62C153.35,116.12,152.9,115.44,152.43,114.76Z" transform="translate(0 0)" style="fill: #e7eaee;fill-rule: evenodd"/>
  <path d="M172.88,117l0,.4c-.71,5.17-2.71,12.37-6.32,17.8a46.29,46.29,0,0,1-17,15.09c-9.09,4.76-19,5.63-28.73-.55l-.43-.27c-5.12-3.35-9-5-14.34-3.64s-7.92,5.22-10.22,8.82l-.11.15a2.49,2.49,0,0,1-1.51,1l-10.11,1.6,3.68,4.57c1.11,1.39,1.89,2.39,2.36,3l4,5.33c12,15.81,25,30.92,50.34,25.69l.86-.19c6.7-1.49,12.32,2.52,19.37,8.42l1.51,1.26c1.87,1.58,7.51,6.55,9.81,8.95l.76.79.69.75.42.45.72.81.44-.52c4.77-5.74,7.76-14.5,9.31-21.72a51.78,51.78,0,0,0,1.06-7.75l0-.31c0-.71.05-1.32.05-1.83v-.39l-.72.22c-8.35,2.36-17.74,2.6-26.9,1.54C159.67,186.17,184,166.5,179,141c-1.13-5.8-1.85-13.57-3.84-18.83-.62-1.66-1.27-3.18-1.91-4.54Z" transform="translate(0 0)" style="fill: #fff;fill-rule: evenodd"/>
  <path d="M550.66,291.49l-20.77,10.1q-7.47,6.36-2.54,18.9c1.15,2.94,4,9.93,4,7.19,0-.86,19.27-13.46,23-12.23,3.42,1.14-2.72-9.14-4.44-13.86l.74-10.36.58-1" transform="translate(0 0)" style="fill: #e7eaee;fill-rule: evenodd"/>
  <path d="M523,299.07c1.38,0-6.44,3.68-6,10.46s5.7,19.3,4.42,19.79-3.74-3.15-4.23-4.44c-3.07-8-3.65-11.3-3.54-16C513.7,302.77,516.92,299.07,523,299.07Z" transform="translate(0 0)" style="fill: #e7eaee;fill-rule: evenodd"/>
  <ellipse cx="557.76" cy="305.79" rx="5.4" ry="12.2" style="fill: #e7eaee"/>
  <path d="M180.57,434.42c0-21.17,2.35-30.37,27.6-41.93,51.76-20.92,51.76-21.72,150.92-60.06,26.23-10.09,81.51,14.07,105.55,3.95,16-6.75,31-11.77,44.26-18.46,1.28,8.37,9.57,22.55,12.49,25a204.39,204.39,0,0,0-45,15.1c-31.33,14.72-12.76,10.71-62.38,57.51-4.21,4-19.66,13-42,22.42,0,0-45-6-63.05-13.54-18.36-7.65-46.2-31.9-46.2-31.9s-32.46,21.18-51.12,30.7C202.9,427.64,180.57,434.42,180.57,434.42Z" transform="translate(0 0)" style="fill: #fff;fill-rule: evenodd"/>
  <path d="M180.57,423.42c0-5-.53-8.44,0-12.28,1.71-12.5,8.41-18.9,27.74-27.74,51.76-20.92,51.62-23.63,150.78-62,26.23-10.09,81.51,14.07,105.55,3.95,16-6.75,31-11.77,44.26-18.46,0,.24-1.34,11.68-1.34,11.68s-32.69,17.26-54.31,20.92c-23,3.89-54.53-14.14-86-5.27-48,13.5-158.56,56-171.64,66.6C185.29,409.21,180.57,423.42,180.57,423.42Z" transform="translate(0 0)" style="fill: #e7eaee;fill-rule: evenodd"/>
  <path d="M152.43,114.76a4,4,0,0,0-3.74-1.73,3.89,3.89,0,0,0-3.25,2.7l-.12.39-.34,1c-.37,1-.82,2.23-1.36,3.49A63.32,63.32,0,0,1,138,131.11c-4.82,7.2-10.62,12.21-17.41,14.14a2,2,0,0,0-1.38,2.47c.3,1.06,16.82-6.47,22.11-14.38a67.79,67.79,0,0,0,6-11.18c.48-1.15.91-2.23,1.27-3.23l.18-.5q.21-.6.36-1.08c0-.22,0-.3.08-.23,11.45,7.84,7,27.3,8.05,27.39a2,2,0,0,0,2.15-1.67l.12-1.05,0-.35a39.42,39.42,0,0,0-5.77-24.62C153.35,116.12,152.9,115.44,152.43,114.76Z" transform="translate(0 0)" style="fill: #e7eaee;fill-rule: evenodd"/>
  <path d="M176.28,114.71l.26.45.3.57c.19.36.4.77.62,1.24.79,1.62,1.58,3.45,2.34,5.46a66.89,66.89,0,0,1,4.15,18.2,51,51,0,0,1-3.73,24.29l-.27.62a51.35,51.35,0,0,1-11.19,15.92l-.48.47.41,0a58.55,58.55,0,0,0,20-2.28,4.41,4.41,0,0,1,5.75,4l0,.42v.78c0,.78,0,1.66-.08,2.62a55.78,55.78,0,0,1-1.16,8.51,50,50,0,0,1-11.35,23,4.42,4.42,0,0,1-3.06,1.47h-.28a4.43,4.43,0,0,1-3.21-1.43l-.6-.69-.29-.33-.62-.69-.68-.74c-.24-.25-.48-.51-.74-.77a78.29,78.29,0,0,0-7.11-6.54c-7.06-5.7-13.87-8.91-19.69-8.57-9.51.58-17.38.13-24.69-1.92-9.45-2.65-16.87-7.85-21.78-16.13l-.27-.47a110.37,110.37,0,0,0-10.72-14.85c-1.37-1.65-2.72-3.21-4-4.65l-.55-.61c-.87-1-1.59-1.76-1.89-2.07a4.43,4.43,0,0,1-1-4.39l.07-.21a4.43,4.43,0,0,1,3.28-2.8l8.11-1.6.09-.13a22.07,22.07,0,0,1,12.55-9c5.73-1.46,11.77-.19,17.85,3.67l.43.27c8.21,5.38,16.35,5.08,24.09,1A41.6,41.6,0,0,0,162,133.05c3.71-5.59,5.92-11.56,6.08-16.27a4.41,4.41,0,0,1,8.23-2.07Zm-3.4,2.28,0,.4c-.71,5.17-2.71,12.37-6.32,17.8a46.29,46.29,0,0,1-17,15.09c-9.09,4.76-19,5.63-28.73-.55l-.43-.27c-5.12-3.35-9-5-14.34-3.64s-7.92,5.22-10.22,8.82l-.11.15a2.49,2.49,0,0,1-1.51,1l-10.11,1.6,3.68,4.57c1.11,1.39,1.89,2.39,2.36,3l4,5.33c12,15.81,25,30.92,50.34,25.69l.86-.19c6.7-1.49,12.32,2.52,19.37,8.42l1.51,1.26c1.87,1.58,7.51,6.55,9.81,8.95l.76.79.69.75.42.45.72.81.44-.52c4.77-5.74,7.76-14.5,9.31-21.72a50.52,50.52,0,0,0,1.06-7.75l0-.31c0-.71.05-1.32.05-1.83v-.39l-.72.22c-8.35,2.36-17.74,2.6-26.9,1.54C159.67,186.17,184,166.5,179,141c-1.13-5.8-1.85-13.57-3.84-18.83-.62-1.66-1.27-3.18-1.91-4.54Z" transform="translate(0 0)" style="fill: #e7eaee;fill-rule: evenodd"/>
  <path d="M109.5,162a3.5,3.5,0,1,0-3.5-3.5A3.5,3.5,0,0,0,109.5,162Z" transform="translate(0 0)" style="fill: #00160a;fill-rule: evenodd"/>
  <ellipse cx="112.5" cy="171.5" rx="5.5" ry="4.5" style="fill: #ffb61d"/>
  <ellipse cx="112.5" cy="171.5" rx="5.5" ry="4.5" style="fill: #ffb61d"/>
  <path d="M176.28,114.71l.26.45.3.57c.19.36.4.77.62,1.24.79,1.62,1.58,3.45,2.34,5.46a66.89,66.89,0,0,1,4.15,18.2,51,51,0,0,1-3.73,24.29l-.27.62a51.35,51.35,0,0,1-11.19,15.92l-.48.47.41,0a58.55,58.55,0,0,0,20-2.28,4.41,4.41,0,0,1,5.75,4l0,.42v.78c0,.78,0,1.66-.08,2.62a55.78,55.78,0,0,1-1.16,8.51,50,50,0,0,1-11.35,23,4.4,4.4,0,0,1-3.06,1.47h-.28a4.43,4.43,0,0,1-3.21-1.43l-.6-.69-.29-.33-.62-.69-.68-.74c-.24-.25-.48-.51-.74-.77a78.29,78.29,0,0,0-7.11-6.54c-7.06-5.7-13.87-8.91-19.69-8.57-9.51.58-17.38.13-24.69-1.92-9.45-2.65-16.87-7.85-21.78-16.13l-.27-.47a110.37,110.37,0,0,0-10.72-14.85c-1.37-1.65-2.72-3.21-4-4.65l-.55-.61c-.87-1-1.59-1.76-1.89-2.07a4.43,4.43,0,0,1-1-4.39l.07-.21a4.43,4.43,0,0,1,3.28-2.8l8.11-1.6.09-.13a22.07,22.07,0,0,1,12.55-9c5.41-1.38,11.09-.32,16.83,3,6.35-2.12,11.8-7,16.37-13.81a63.32,63.32,0,0,0,5.61-10.51c.54-1.26,1-2.44,1.36-3.49l.34-1,.12-.39a3.89,3.89,0,0,1,3.25-2.7,4,4,0,0,1,3.74,1.73c.47.68.92,1.36,1.35,2.06a39.35,39.35,0,0,1,5.92,19.35c.79-1,1.55-2,2.27-3.12,3.71-5.59,5.92-11.56,6.08-16.27a4.41,4.41,0,0,1,8.23-2.07Zm-29.1,32.14c-7.52,3.93-15.41,4.33-23.39-.58,5.37-2.48,14-7.62,17.54-12.93a67.79,67.79,0,0,0,6-11.18c.48-1.15.91-2.23,1.27-3.23l.18-.5q.21-.6.36-1.08c0-.22,0-.3.08-.23,7.61,5.21,8.18,15.56,8,21.93A38.29,38.29,0,0,1,147.18,146.85Zm2.32,3.43a48.19,48.19,0,0,0,8.93-6,2.2,2.2,0,0,0,.56-.49,43.63,43.63,0,0,0,7.52-8.57c3.61-5.43,5.61-12.63,6.32-17.8l0-.4.33.67c.64,1.36,1.29,2.88,1.91,4.54,1.39,3.66,2.15,8.54,2.88,13.12h0c.31,2,.62,4,1,5.71,3.83,19.52-9.55,35.63-15,42.21-1.67,2-2.6,3.12-2.08,3.18,9.16,1.06,18.55.82,26.9-1.54l.72-.22v.39c0,.51,0,1.12-.05,1.83l0,.31a50.52,50.52,0,0,1-1.06,7.75c-1.55,7.22-4.54,16-9.31,21.72l-.44.52-.72-.81-.42-.45-.69-.75-.76-.79c-2.3-2.4-7.94-7.37-9.81-8.95l-1.51-1.26c-7.05-5.9-12.67-9.91-19.37-8.42l-.86.19c-25.31,5.23-38.29-9.88-50.34-25.69l-4-5.33c-.47-.61-1.25-1.61-2.36-3l-3.68-4.57,10.11-1.6a2.49,2.49,0,0,0,1.51-1l.11-.15c2.3-3.6,4.89-7.48,10.22-8.82s9.22.29,14.34,3.64l.43.27C130.51,155.91,140.41,155,149.5,150.28ZM549.61,288.35c2-1,5.49.89,3.44,3.87-3.09,4.52.35,15,2.44,21.39h0c1,2.95,1.66,5,1.27,5.23a2.51,2.51,0,0,1-3.38-1c-3.46-6.63-5.45-11.89-5.94-15.89a28.92,28.92,0,0,1-.16-5.78v-.21l-16,7.78-.2.19c-3.61,3.39-5.2,7.32-2.56,14.3l.16.4c2.87,7.31,7.73,12.56,12.79,12.34l.39,0c11.24-.23,17.95-3.61,20.35-7.73,3-5.18,3.83-11.15-1.79-22.77-.6-1.25-3.69-9.84.68-5.4s10.44,24,6.51,30.8c-3.29,5.64-11.71,8.47-23.26,9a2.42,2.42,0,0,1,0,.93c-1.09,7.42-4.48,12.09-10.15,13.44-4.33,1-9-.33-13.25-3.63a201.46,201.46,0,0,0-43.52,14.71l-2.08,1c-7.16,3.42-11.26,5.71-14.26,7.94a31.36,31.36,0,0,0-4.77,4.36l-.25.29c-.76.88-2.41,2.89-4.29,5.19h0c-2.49,3.05-5.39,6.59-7.12,8.59l-.84,1c-7,8.07-15.91,17.23-28.11,28.73l-.34.31c-4.57,4.09-16.73,11-31.88,18,41.82-1.48,72-17.45,90.76-47.91a2.49,2.49,0,0,1,3.82-.52q48.45,44.85,112.4,41.58,64.2-3.24,94.32-33.26a2.5,2.5,0,1,1,3.52,3.55c-21.1,20.95-65.89,36.67-109.82,38.89-42.72,2.17-68.21-15.44-100.8-44.37l-.8-.71-.29.44c-20.64,31.28-65.49,54.1-110.24,54.42H365c-45.78,0-72.18-22.17-103.07-52.46l-.24-.24-.11.09-.8.68-1.18,1-.71.6c-28.94,24.36-50.54,42.53-83,47.17l-1,.14c-36.63,7.41-92.17-12.32-100.71-22-7.82-8.86,1.3-3.35,3.81-1.84h0l.5.3c24.24,13.88,52.19,19.16,85.72,14.59q6.94-.94,13.8-2.51l-.06-.49c-1.46-13.91-1.47-20,.64-27,2.87-9.49,9.84-16.7,22.37-22.43l3.45-1.52c15.48-6.83,27.77-11.95,40.52-16.93l.94-.36q2.15-.84,4.36-1.68l1.45-.56c.52-.18,7.33-2.88,17.7-7h0c24-9.5,66.81-26.49,94.77-37.3,6-2.33,13.37-3.1,22.35-2.64l.78.05c6.73.39,13.35,1.31,24.2,3.18l9.53,1.67a202.65,202.65,0,0,0,21.82,3c1.89.13,3.7.3,5.4.46h0c6.34.59,11.43,1.06,15.49-.65l10.62-4.43h0c11.34-4.7,21.93-9.09,31.75-14,.67-4.37,2.39-7.6,5.09-9.72,4.16-3.28,10.05-3.33,15.16-1.35a2.51,2.51,0,0,1,1.42,3.24c-.16.41-1.2.22-2.67,0-3.08-.57-8-1.48-10.82,2.09-3.08,4-4.1,10-1.37,22,2,8.68,14.8,23.43,20.22,23.43,6,0,7.45-5.86,8.25-9.19l0-.21c-7.18.19-12.64-4.36-16.18-13.08l-.18-.43c-3.64-9.28-2.64-16.71,3.25-21.72a2,2,0,0,1,.34-.25l.19-.1ZM516.37,341c-.26-.31-.51-.62-.75-.94a3.65,3.65,0,0,1-.27-.3l-.69-.84a37.8,37.8,0,0,1-5.95-8.91l-.25-.57c-2.82-6.32-3.16-13.41-3-19.26l0-.68-.15.07q-17.48,8.65-38,17.36l-1.72.72a48.55,48.55,0,0,1-22.47,3.62l-.71-.05c-6.34-.45-11.68-1.21-22.86-3.15l-8.35-1.47c-23.54-4.07-35.31-4.71-45-1.08,0,0-144.73,54.44-163.27,62.36-11.27,5.16-15.1,10-19.76,17.87-2.41,4.07-2.17,15.29-2,23.08h0c0,1.31.06,2.52.07,3.58q41.06-10.26,78.93-42.71a2.49,2.49,0,0,1,3.41.14q3.06,3.09,6.23,6L374,352.31a2.43,2.43,0,0,1,.87-.19,14.94,14.94,0,0,1,2.54-.92c9.09-2.42,16.35,1.51,21.36,11.19l9.08-6.62a2.5,2.5,0,0,1,3.82,1.15c8.29,22.4,5.88,37.75-7.77,45.16s-25.74,1.31-35.08-17.36a2.52,2.52,0,0,1,.37-2.78c-2.22-9-2.64-16.24-1.12-21.46l-91.32,41.39a147.15,147.15,0,0,0,45,25.08,5.83,5.83,0,0,1,1.18-.88c13.77-7.54,47.68-16.35,56.06-18.53l1.57-.41c3.93-1.05-.1,2.62-1.28,3.17l-.15.06-49.51,19.07A172.24,172.24,0,0,0,377,435.72l2.85,0,1.11-.72h0c10.59-6.88,28.29-18.38,31.36-21.28l1.43-1.36c10.2-9.89,17.78-19.37,24.4-27.66,7.27-9.08,13.37-16.72,20.48-21.84a56,56,0,0,1,12.25-7c1.26-.57,2.71-1.23,4.48-2.06,12.49-5.87,26.68-9.27,40-12.46ZM378.73,356c7.21-1.91,12.6,1.47,16.71,10.91l-10.62,8.42h0l-11,4.33-.27-1.21C370.55,364.87,372.51,357.69,378.73,356Zm16.71,10.91-10.61,8.42a2.47,2.47,0,0,1,.65-.16,2.41,2.41,0,0,1,.6,0,2.47,2.47,0,0,1,1.27.56,2.66,2.66,0,0,1,.6.73c2.5,4.51,4.44,5.59,6.4,4.48s2.74-5.55,1.22-13.39ZM257.74,469.59c1.16-.74,9.17-4.65,2,2.7s-62.72,38.53-92.73,40.25c-28.92,1.67-54.59-10.41-76.93-26.22l-.74-.53-.15.19a35.54,35.54,0,0,1-3,3.42l-.45.43c-1.89,1.78-5.17,3.78-9.9,6.12-1.24.61-5.61,1.18-3.35-1.13s7.22-5.63,10.11-7.54a7.81,7.81,0,0,0,3.07-4.15,11,11,0,0,1,1.13-2.25,2.49,2.49,0,0,1,3.55-.58c22,16.51,47.75,25.3,76.71,23.64S226.17,489.91,257.74,469.59Zm171.05,15.94c1-.93,1-7.61,0-6.68C417.55,489.22,394,498.33,365,500s-51.9-2.89-68.58-13.61c-1.16-.75-6.91-2.73-3.45.75S335.27,508.72,365.3,507l.9-.06C395.79,505.14,416.65,496.73,428.79,485.53Zm-20.51-123.3-.16-.45-7.52,5.49.14.78c1.51,8.85.48,14.64-3.72,17.17l-.22.13c-4.38,2.45-8.5.72-11.94-4.33l-.15-.22-10.12,4.09.23.42c7.74,14,16.31,17.85,26.41,12.55l.32-.17c10.14-5.5,12.63-16.73,7.08-34.37ZM113,158.5a3.5,3.5,0,1,1-3.5-3.5A3.5,3.5,0,0,1,113,158.5Z" transform="translate(0 0)" style="fill: #00160a;fill-rule: evenodd"/>
</svg>
