<svg width="87" height="87" viewBox="0 0 87 87" fill="none" xmlns="http://www.w3.org/2000/svg">
<circle cx="43.1301" cy="43.13" r="41.112" fill="black"/>
<circle cx="43.1301" cy="43.13" r="42.112" stroke="#B2B2B2" stroke-width="2" stroke-linejoin="round"/>
<circle cx="43" cy="43" r="43" fill="#F1567D"/>
<path fill-rule="evenodd" clip-rule="evenodd" d="M51.9108 35.631C52.7612 35.6179 53.5791 35.957 54.1708 36.568C54.7828 37.1591 55.1231 37.9771 55.1108 38.828V50.015C55.1108 50.8637 54.7736 51.6776 54.1735 52.2777C53.5734 52.8778 52.7595 53.215 51.9108 53.215H34.3268C33.4764 53.2281 32.6584 52.889 32.0668 52.278C31.4558 51.6863 31.1167 50.8684 31.1298 50.018V38.828C31.1174 37.9771 31.4577 37.1591 32.0698 36.568C32.6614 35.957 33.4794 35.6179 34.3298 35.631H37.1238L37.7608 33.931C37.9376 33.5002 38.2401 33.1326 38.6288 32.876C39.0026 32.5963 39.4549 32.4413 39.9218 32.433H46.3128C46.7796 32.4413 47.2319 32.5963 47.6058 32.876C47.9944 33.1326 48.2969 33.5002 48.4738 33.931L49.1108 35.631H51.9108ZM43.1178 50.018C44.6056 50.04 46.0364 49.4457 47.0708 48.376C48.1221 47.3294 48.7132 45.907 48.7132 44.4235C48.7132 42.94 48.1221 41.5176 47.0708 40.471C46.0364 39.4013 44.6056 38.807 43.1178 38.829C41.6299 38.807 40.1992 39.4013 39.1648 40.471C38.1136 41.5177 37.5227 42.9401 37.5227 44.4235C37.5227 45.9069 38.1136 47.3292 39.1648 48.376C40.1992 49.4457 41.6299 50.04 43.1178 50.018Z" fill="white"/>
<path d="M43.1187 40.823C41.4008 40.8205 39.9206 42.0322 39.5835 43.7166C39.2465 45.4011 40.1465 47.0891 41.7331 47.7478C43.3197 48.4065 45.1506 47.8525 46.1058 46.4246C47.0609 44.9968 46.8742 43.093 45.6597 41.878C44.9947 41.1906 44.075 40.8088 43.1187 40.823V40.823Z" fill="white"/>
</svg>
