<svg id="Layer_1" data-name="Layer 1" xmlns="http://www.w3.org/2000/svg" xmlns:xlink="http://www.w3.org/1999/xlink" viewBox="0 0 38 38">
  <defs>
    <clipPath id="clip-path" transform="translate(0 0)">
      <rect x="9" y="9" width="19" height="19" fill="none"/>
    </clipPath>
  </defs>
  <title>question_icon</title>
  <path d="M0,12A12,12,0,0,1,12,0H26A12,12,0,0,1,38,12V26A12,12,0,0,1,26,38H12A12,12,0,0,1,0,26Z" transform="translate(0 0)" fill="#fda758" opacity="0.1" style="isolation: isolate"/>
  <g clip-path="url(#clip-path)">
    <g>
      <path d="M26.42,18.5a7.91,7.91,0,1,1-7.9-7.9A7.9,7.9,0,0,1,26.42,18.5Z" transform="translate(0 0)" fill="#fda758"/>
      <path d="M26.42,18.5a7.9,7.9,0,0,1-7.9,7.9,5.15,5.15,0,0,1-.56,0,7.9,7.9,0,0,0,0-15.76,5.15,5.15,0,0,1,.56,0A7.9,7.9,0,0,1,26.42,18.5Z" transform="translate(0 0)" fill="#e79732"/>
      <path d="M16.27,27.72a1.39,1.39,0,0,1-1.39-1.4v-.18a1.4,1.4,0,1,1,2.79,0v.18A1.39,1.39,0,0,1,16.27,27.72Z" transform="translate(0 0)" fill="#fff"/>
      <path d="M16.21,14.14a2.33,2.33,0,0,1,2.31-2.07h0a2.34,2.34,0,0,1,2.29,2.29,2.32,2.32,0,0,1-2.32,2.36h0a3.59,3.59,0,0,0-2.55,1.05,3.52,3.52,0,0,0-1,2.53V23a.36.36,0,0,0,.37.37H17.3a.36.36,0,0,0,.37-.37V20.32a.78.78,0,0,1,.24-.57.8.8,0,0,1,.56-.24h.05a5.12,5.12,0,0,0,.07-10.23h-.07a5.11,5.11,0,0,0-5.11,4.86V15a.36.36,0,0,0,.37.37h2.06a.37.37,0,0,0,.37-.37Z" transform="translate(0 0)" fill="#fff"/>
      <path d="M23.74,24.06a7.61,7.61,0,0,1-5.22,2.07,5.44,5.44,0,0,1-.57,0,1.67,1.67,0,0,0-3.06-.89,7.63,7.63,0,0,1-1.56-12.3,5.55,5.55,0,0,0-.2,1.22h0V15a.65.65,0,0,0,.65.65h2.06a.65.65,0,0,0,.65-.65v-.84a2,2,0,0,1,.59-1.22,2.05,2.05,0,0,1,1.44-.59h0a2.22,2.22,0,0,1,.87.21.27.27,0,0,0,.37-.12.27.27,0,0,0-.12-.37,2.58,2.58,0,0,0-1.12-.28h0a2.6,2.6,0,0,0-2.59,2.32V15a.09.09,0,0,1-.09.09H13.78a.09.09,0,0,1-.09-.09v-.85a4.82,4.82,0,0,1,4.83-4.59h.07a4.84,4.84,0,0,1-.07,9.68h-.05a1.11,1.11,0,0,0-.76.32,1.1,1.1,0,0,0-.32.77V23a.09.09,0,0,1-.09.09H15.25a.09.09,0,0,1-.09-.09V20.3a3.28,3.28,0,0,1,1-2.34,3.32,3.32,0,0,1,2.35-1h0a2.59,2.59,0,0,0,2.16-4,.28.28,0,0,0-.46.31A2,2,0,0,1,20,15.83a2,2,0,0,1-1.45.61h0A3.88,3.88,0,0,0,14.6,20.3V23a.65.65,0,0,0,.65.65H17.3A.65.65,0,0,0,18,23V20.32a.54.54,0,0,1,.15-.38.56.56,0,0,1,.37-.15h.05a5.39,5.39,0,0,0,5.39-5.47,5.11,5.11,0,0,0-.2-1.41,7.62,7.62,0,0,1,2.4,4.9.29.29,0,0,0,.28.25h0a.28.28,0,0,0,.25-.3,8.19,8.19,0,0,0-3.4-5.92h0a5.45,5.45,0,0,0-.94-1.26A5.37,5.37,0,0,0,18.6,9h-.08a5.36,5.36,0,0,0-4.75,2.84,8.17,8.17,0,0,0,.88,13.87,2,2,0,0,0-.05.43v.18A1.68,1.68,0,0,0,16.27,28a1.69,1.69,0,0,0,1.65-1.34c.2,0,.4,0,.6,0a8.15,8.15,0,0,0,5.6-2.22.28.28,0,0,0-.38-.4Zm-6.35,2.26a1.12,1.12,0,1,1-2.23,0v-.18a1.12,1.12,0,1,1,2.23,0Z" transform="translate(0 0)" fill="#474d54"/>
      <path d="M26.42,18.72a.27.27,0,0,0-.29.26,7.61,7.61,0,0,1-1.6,4.21.28.28,0,0,0,0,.39.27.27,0,0,0,.17.06.28.28,0,0,0,.22-.11A8.18,8.18,0,0,0,26.69,19a.29.29,0,0,0-.27-.29Z" transform="translate(0 0)" fill="#474d54"/>
      <path d="M19.19,21.07H20a.28.28,0,0,0,.28-.28.29.29,0,0,0-.28-.28h-.77a.28.28,0,0,0-.27.28.27.27,0,0,0,.27.28Z" transform="translate(0 0)" fill="#fff"/>
      <path d="M21.83,21.54H19.19a.28.28,0,0,0,0,.56h2.64a.28.28,0,0,0,0-.56Z" transform="translate(0 0)" fill="#fff"/>
      <path d="M21.83,22.39H19.19a.28.28,0,0,0-.27.28.27.27,0,0,0,.27.28h2.64a.28.28,0,0,0,.28-.28A.29.29,0,0,0,21.83,22.39Z" transform="translate(0 0)" fill="#fff"/>
    </g>
  </g>
</svg>
