<svg width="414" height="692" viewBox="0 0 414 692" fill="none" xmlns="http://www.w3.org/2000/svg">
<defs>
<linearGradient id="paint0_linear" x1="207" y1="153.778" x2="207" y2="346" gradientUnits="userSpaceOnUse">
<stop stop-color="#FFF3E9" stop-opacity="0"/>
<stop offset="1" stop-color="#FFF3E9"/>
</linearGradient>
</defs>
<path d="M473.977 8.9137H-60.4043V347.868H473.977V8.9137Z" fill="#FFF3E9"/>
<path opacity="0.5" d="M267.888 193.932L240.86 164.906L238.43 165.133L238.476 165.013L237.165 165.139L237.167 165.135L202.089 168.512L201.888 168.53V168.532L181.857 200.182L183.166 200.059H183.168L186.848 239.642L199.129 238.473L199.133 238.496L217.496 236.785L217.491 236.725L230.43 235.493L267.342 232.055L263.832 194.309L267.888 193.932Z" fill="#9DB0F4"/>
<path d="M-35.498 211.334C-35.498 211.334 -50.9493 195.166 -35.498 180.372C-20.0467 165.578 -14.8182 170.285 -9.53861 164.905C-4.25899 159.524 5.1778 143.386 26.8265 144.731C48.4751 146.076 54.539 159.188 54.5299 166.921C54.5207 174.655 -35.498 211.334 -35.498 211.334Z" fill="#9BCC8F"/>
<path d="M-32.114 207.121C-32.114 207.121 -5.90597 140.348 -1.42889 119.05L1.17801 126.541L13.2692 104.947V123.779L17.6366 123.113C17.6366 123.113 -9.98634 212.891 -9.60244 246.848C-9.60244 246.848 -9.03754 259.109 -4.43067 263.91C-4.43067 263.91 -21.7211 265.439 -28.9093 264.382C-36.0974 263.324 -39.346 256.738 -45.6165 251.456C-51.887 246.175 -35.847 231.286 -32.114 207.121Z" fill="#C18A65"/>
<path d="M443.586 118.705C443.586 118.705 431.941 90.0101 412.233 92.2519C392.526 94.4936 390.296 93.1486 375.956 86.8717C361.616 80.5948 342.072 87.3201 349.384 102.793C356.697 118.265 378.923 156.816 368.931 165.783C358.938 174.75 384.018 214.209 398.797 227.88C413.575 241.552 473.977 229.71 473.977 229.71V165.779C473.977 165.779 465.083 153.169 450.759 146.473C436.436 139.777 447.878 126.969 443.586 118.705Z" fill="#9BCC8F"/>
<path d="M249.879 204.784C249.431 204.112 242.713 194.697 236.443 195.369C230.172 196.04 225.918 200.974 217.856 197.382C209.794 193.789 199.004 192.898 194.659 199.175C190.314 205.452 200.476 214.785 197.522 220.431C194.568 226.076 207.778 243.443 219.642 244.51C231.507 245.577 257.263 229.37 256.144 219.541C255.026 209.712 249.879 204.784 249.879 204.784Z" fill="#9BCC8F"/>
<path opacity="0.5" d="M178.857 157.323L162.459 162.352C162.413 162.366 162.368 162.384 162.325 162.407L145.689 167.511C145.548 167.554 145.416 167.625 145.302 167.719C145.188 167.813 145.093 167.929 145.024 168.06C144.954 168.191 144.911 168.334 144.897 168.482C144.883 168.629 144.898 168.778 144.942 168.92C144.955 168.963 144.971 169.006 144.989 169.048C144.999 169.092 145.01 169.136 145.022 169.18L151.943 191.789C152.043 192.113 152.267 192.383 152.566 192.542C152.865 192.701 153.214 192.735 153.538 192.637L159.631 190.768C159.954 190.668 160.224 190.444 160.383 190.145C160.541 189.846 160.575 189.496 160.477 189.172L153.801 167.381L158.249 166.016L176.724 226.376C176.3 226.698 175.985 227.142 175.822 227.649C175.658 228.155 175.654 228.7 175.81 229.209L181.579 248.058C181.579 248.058 182.616 248.241 184.23 247.738C185.978 247.202 186.607 246.517 186.607 246.517L180.8 227.547C180.647 227.049 180.341 226.611 179.925 226.296C179.509 225.982 179.005 225.806 178.484 225.794L160.02 165.47L162.214 164.8L166.857 179.966C166.894 180.086 166.954 180.198 167.034 180.296C167.114 180.393 167.213 180.473 167.324 180.533C167.435 180.592 167.557 180.628 167.682 180.64C167.808 180.652 167.934 180.639 168.055 180.602L184.453 175.572C184.573 175.535 184.685 175.475 184.783 175.395C184.88 175.314 184.96 175.216 185.019 175.105C185.078 174.993 185.115 174.871 185.127 174.746C185.139 174.62 185.126 174.494 185.089 174.373L180.065 157.958C180.028 157.837 179.968 157.724 179.887 157.626C179.806 157.528 179.706 157.447 179.594 157.388C179.481 157.329 179.358 157.293 179.232 157.282C179.105 157.271 178.978 157.285 178.857 157.323Z" fill="#9DB0F4"/>
<path d="M420.009 146.619L429.782 251.72L371.099 257.188L360.542 143.572L361.397 143.481L403.627 138.968L407.873 139.795C409.471 142.189 418.701 144.229 420.009 146.619Z" fill="#FFF3E9"/>
<path d="M368.146 95.297C370.43 96.4145 372.72 97.6553 375.016 99.0192L368.031 117.623L358.212 143.792L355.977 149.749L355.286 151.588L274.711 159.091L279.614 151.344L279.771 151.094L311.42 100.534L311.655 100.717L335.931 98.3824L368.126 95.2823L368.146 95.297Z" fill="#ED9F4A"/>
<path d="M375.017 99.0119C372.718 97.6455 370.428 96.4048 368.147 95.2897L335.948 98.3897L314.835 100.421L313.387 102.71L277.89 158.798L280.287 158.575L290.159 264.731L371.104 257.188L360.702 145.333L361.39 143.503V143.492L370.53 119.138L377.505 100.556C376.676 100.021 375.847 99.506 375.017 99.0119Z" fill="#F9DDBF"/>
<path d="M361.525 154.088L360.024 154.205L357.465 151.383L355.982 149.736L351.183 144.429L313.392 102.705L311.632 100.76L311.425 100.533L335.765 98.2726C335.765 98.2726 348.648 97.0922 374.618 94.673L422.493 148.685L361.525 154.088Z" fill="#ED9F4A"/>
<path d="M303.519 136.106L302.356 136.214C300.461 136.391 298.714 137.314 297.499 138.78C296.284 140.246 295.701 142.135 295.877 144.032L297.568 162.205L312.787 160.789L311.069 142.388C310.899 140.554 310.008 138.861 308.592 137.683C307.177 136.505 305.352 135.938 303.519 136.106Z" fill="#EFCDAF"/>
<path d="M303.477 135.669L302.316 135.777C300.304 135.966 298.45 136.947 297.159 138.503C295.869 140.06 295.248 142.065 295.433 144.079L297.175 162.7L313.281 161.197L311.528 142.348C311.344 140.394 310.393 138.593 308.883 137.34C307.374 136.088 305.429 135.486 303.477 135.669ZM302.398 136.664L303.559 136.556C305.274 136.398 306.982 136.927 308.309 138.028C309.635 139.129 310.47 140.712 310.632 142.429L310.654 142.667L296.321 144.002C296.156 142.223 296.703 140.45 297.843 139.074C298.982 137.698 300.62 136.832 302.398 136.664ZM296.425 145.121L302.864 144.52L304.409 161.128L297.968 161.726L296.425 145.121ZM305.55 161.021L304.005 144.414L310.758 143.792L312.303 160.401L305.55 161.021Z" fill="#FFF3E9"/>
<path d="M327.14 133.91L325.977 134.018C324.082 134.195 322.335 135.118 321.12 136.584C319.905 138.05 319.322 139.939 319.498 141.836L321.187 160.011L336.407 158.593L334.695 140.185C334.523 138.35 333.631 136.659 332.215 135.483C330.798 134.306 328.973 133.74 327.14 133.91Z" fill="#EFCDAF"/>
<path d="M327.098 133.467L325.937 133.575C323.925 133.765 322.07 134.746 320.78 136.303C319.49 137.86 318.869 139.865 319.054 141.88L320.785 160.498L336.893 158.998L335.14 140.148C334.956 138.196 334.007 136.396 332.499 135.143C330.991 133.891 329.049 133.288 327.098 133.467ZM326.019 134.463L327.18 134.355C328.896 134.197 330.604 134.727 331.93 135.828C333.256 136.929 334.091 138.512 334.253 140.229L334.275 140.465L319.943 141.801C319.777 140.021 320.324 138.248 321.464 136.872C322.603 135.495 324.241 134.627 326.019 134.459V134.463ZM320.045 142.919L326.485 142.319L328.03 158.928L321.59 159.53L320.045 142.919ZM329.171 158.822L327.626 142.213L334.379 141.583L335.922 158.192L329.171 158.822Z" fill="#FFF3E9"/>
<path d="M312.537 170.968L297.272 211.643L239.907 216.988L266.208 175.429L312.537 170.968Z" fill="#ED9F4A"/>
<path d="M314.255 170.808L298.99 211.482L241.625 216.827L267.929 175.268L314.255 170.808Z" fill="#F9DDBF"/>
<path d="M298.866 211.493L303.689 263.359L246.461 268.805L241.627 216.827L298.866 211.493Z" fill="#F9DDBF"/>
<path d="M347.341 206.963L298.871 211.481L303.696 263.346L352.165 258.828L347.341 206.963Z" fill="#FFF3E9"/>
<path d="M352.876 208.783L300.808 213.634L266.208 175.427L281.718 173.985L317.385 170.669L352.876 208.783Z" fill="#ED9F4A"/>
<path d="M282.676 221.717L286.698 265.055L262.581 267.302L258.602 224.361C258.3 221.107 259.301 217.867 261.386 215.352C263.471 212.837 266.468 211.254 269.718 210.951C272.863 210.659 275.995 211.63 278.425 213.648C280.856 215.667 282.386 218.569 282.68 221.717H282.676Z" fill="#EFCDAF"/>
<path d="M352.876 208.783L349.482 209.099L298.517 172.419L317.385 170.669L352.876 208.783Z" fill="#E58638"/>
<path d="M269.791 212.476C268.423 212.603 267.094 212.999 265.879 213.641C264.664 214.282 263.587 215.157 262.71 216.216C261.833 217.274 261.173 218.495 260.767 219.809C260.361 221.123 260.218 222.504 260.345 223.873L264.21 265.425L284.709 263.514L280.813 221.626C280.69 220.3 280.307 219.012 279.686 217.835C279.066 216.658 278.219 215.614 277.196 214.765C276.172 213.915 274.992 213.275 273.721 212.883C272.451 212.49 271.115 212.352 269.791 212.476Z" fill="#FFF3E9"/>
<path d="M279.47 221.891L279.503 222.257L261.779 223.904V223.836C261.557 221.445 262.293 219.063 263.825 217.215C265.357 215.367 267.56 214.203 269.949 213.98C272.259 213.766 274.56 214.479 276.346 215.962C278.131 217.446 279.255 219.578 279.47 221.891Z" fill="#F9DDBF"/>
<path d="M269.907 213.61C267.421 213.845 265.13 215.057 263.536 216.981C261.942 218.904 261.175 221.382 261.404 223.871L261.444 224.308L279.908 222.588L279.841 221.856C279.612 219.446 278.438 217.224 276.576 215.678C274.714 214.133 272.315 213.389 269.907 213.61ZM262.117 223.492C262.051 222.349 262.211 221.204 262.59 220.124C262.968 219.043 263.557 218.048 264.322 217.197C264.484 217.014 264.658 216.831 264.837 216.666C266.244 215.338 268.054 214.519 269.98 214.342C271.769 214.173 273.564 214.588 275.098 215.524C275.31 215.652 275.515 215.79 275.714 215.938C276.668 216.637 277.463 217.532 278.047 218.561C278.631 219.591 278.99 220.732 279.1 221.911L262.117 223.492Z" fill="#EFCDAF"/>
<path d="M278.678 244.076C278.667 243.951 278.692 243.826 278.752 243.715C278.812 243.605 278.903 243.515 279.014 243.457C279.125 243.398 279.251 243.374 279.375 243.387C279.5 243.4 279.618 243.45 279.714 243.53C279.811 243.61 279.882 243.716 279.917 243.837C279.953 243.957 279.953 244.085 279.916 244.205C279.879 244.325 279.808 244.431 279.711 244.51C279.614 244.59 279.495 244.639 279.371 244.651C279.288 244.658 279.204 244.65 279.124 244.625C279.044 244.6 278.97 244.56 278.905 244.507C278.841 244.454 278.788 244.388 278.749 244.314C278.71 244.24 278.686 244.159 278.678 244.076Z" fill="#EFCDAF"/>
<path d="M275.921 215.605L275.714 215.945L271.638 222.612L271.155 223.403L270.8 223.435L270.095 222.757L264.322 217.204L264.047 216.941L264.559 216.406L264.837 216.674L270.859 222.464L275.097 215.532L275.29 215.217L275.921 215.605Z" fill="#EFCDAF"/>
<path d="M283.563 225.27L260.763 227.324L260.915 229.018L283.715 226.964L283.563 225.27Z" fill="#EFCDAF"/>
<path d="M283.113 262.058L265.576 263.692L262.302 228.472L279.837 226.837L283.113 262.058ZM265.746 263.489L282.91 261.889L279.671 227.041L262.507 228.64L265.746 263.489Z" fill="#EFCDAF"/>
<path opacity="0.4" d="M133.072 65.2246L-60.4062 63.5794V47.4535C-59.8286 47.4773 -59.2436 47.5084 -58.6531 47.5505C-58.6531 47.5505 -18.5769 18.0985 24.161 43.627C24.161 43.627 69.588 37.3007 103.231 49.1023C125.662 56.9713 133.072 65.2246 133.072 65.2246Z" fill="#F8FCFF"/>
<path opacity="0.4" d="M219.297 63.5374C219.297 63.5374 227.523 48.3484 247.229 50.0411C247.229 50.0411 275.823 24.7359 306.316 46.6666C306.316 46.6666 338.728 41.2333 362.733 51.3734C378.737 58.1334 384.024 65.2246 384.024 65.2246L219.297 63.5374Z" fill="#F8FCFF"/>
<path opacity="0.4" d="M57.8735 103.834C57.8735 103.834 64.3085 93.9794 79.7014 95.0738C79.7014 95.0738 102.047 78.6513 125.878 92.8778C125.878 92.8778 151.208 89.3513 169.969 95.932C182.475 100.324 186.605 104.921 186.605 104.921L57.8735 103.834Z" fill="#F8FCFF"/>
<path d="M425.274 242.775C425.274 242.775 410.614 242.396 410.976 228.36C411.338 214.324 415.945 214.095 415.912 209.145C415.879 204.195 412.828 192.309 423.526 182.927C434.224 173.544 443.103 176.833 446.67 180.438C450.237 184.043 425.274 242.775 425.274 242.775Z" fill="#9BCC8F"/>
<path d="M424.904 239.247C424.904 239.247 406.268 196.035 398.519 184.052L403.19 186.334L398.85 170.688L407.544 179.453L409.267 177.118C409.267 177.118 437.866 231.696 453.723 247.332C453.723 247.332 459.65 252.779 464.01 252.88C464.01 252.88 456.666 261.593 452.831 264.427C448.995 267.262 444.443 265.697 439.085 266.14C433.727 266.583 434.325 252.223 424.904 239.247Z" fill="#C18A65"/>
<path d="M372.311 191.255C372.311 191.255 390.419 203.368 410.235 206.695L408.042 202.094C408.042 202.094 394.684 202.048 378.369 193.533L372.311 191.255Z" fill="#C18A65"/>
<path d="M383.768 194.117C383.768 194.117 382.927 196.886 379.658 200.41C376.39 203.935 372.512 202.53 368.366 200.992C364.22 199.455 364.732 191.345 368.757 188.587C372.783 185.829 377.783 182.656 381.667 180.729C385.552 178.802 394.338 181.951 394.526 187.291C394.715 192.631 390.687 193.729 388.128 194.611C385.569 195.493 384.356 192.739 383.768 194.117Z" fill="#9BCC8F"/>
<path d="M473.977 209.672V347.872H-60.4063L-60.9785 224.923C-60.9785 224.923 -33.3738 195.339 10.1227 174.75C58.824 151.692 124.509 138.35 134.881 159.14C149.483 188.411 91.105 189.019 116.187 224.923C141.269 260.828 206.332 209.806 283.749 232.895C285.558 233.433 287.338 233.952 289.091 234.452C342.944 249.835 372.627 247.685 393.623 240.11C395.266 239.519 396.859 238.895 398.402 238.24C399.183 237.909 399.953 237.572 400.713 237.228L400.861 237.16C401.714 236.77 402.557 236.373 403.391 235.969C404.803 235.28 406.184 234.572 407.532 233.846C408.171 233.506 408.811 233.158 409.433 232.81C427.802 222.601 441.257 210.08 468.116 209.595C470.005 209.556 471.958 209.582 473.977 209.672Z" fill="#94B3F7"/>
<path d="M-20.9629 290.778L143.497 268.885L198.374 256.483C198.374 256.483 185.142 233.017 182.383 233.005C179.624 232.992 -19.7618 259.906 -19.7618 259.906L-20.9629 290.778Z" fill="#1D2949"/>
<path d="M222.445 255.892C218.575 258.114 193.884 261.779 193.884 261.779C193.884 261.779 190.411 231.352 165.396 238.284C140.382 245.216 148.183 269.811 148.183 269.811L25.9561 288.309C25.9561 288.309 23.6965 256.048 -2.90637 263.015C-25.0102 268.801 -15.8202 293.748 -15.8202 293.748C-38.0704 297.889 -41.3939 290.584 -41.3939 290.584L-41.8162 287.447L-40.4104 287.264L-41.5072 278.987L-42.9112 279.17L-43.7339 272.99L-40.4561 261.562C-34.33 246.85 27.4277 234.844 27.4277 234.844C36.1588 228.144 43.4604 223.057 49.2025 219.303C58.3614 213.317 68.906 207.264 79.5494 204.76C108.386 197.978 132.848 198.057 138.867 198.227C145.898 198.428 182.498 208.905 185.277 209.862C188.056 210.819 209.529 209.76 212.301 209.729C215.072 209.698 215.354 212.437 215.354 212.437L216.052 214.816L218.703 223.855L219.35 226.051C221.467 226.783 221.847 229.625 221.847 229.625C221.847 229.625 226.313 253.673 222.445 255.892Z" fill="#2B478B"/>
<path d="M-15.5058 284.953C-16.002 281.217 -15.3805 277.419 -13.7199 274.037C-12.0593 270.655 -9.43425 267.842 -6.17666 265.954C-2.91907 264.066 0.824724 263.187 4.5813 263.429C8.33787 263.67 11.9385 265.022 14.9279 267.312C17.9172 269.602 20.161 272.728 21.3755 276.295C22.59 279.861 22.7207 283.708 21.751 287.349C20.7813 290.99 18.7548 294.262 15.9278 296.75C13.1007 299.238 9.60011 300.831 5.86861 301.328C0.864992 301.993 -4.19792 300.642 -8.20637 297.571C-12.2148 294.5 -14.8405 289.961 -15.5058 284.953Z" fill="#2C3A64"/>
<path d="M5.32206 297.212C2.40388 297.599 -0.563594 297.112 -3.20514 295.812C-5.84669 294.511 -8.04368 292.456 -9.5183 289.905C-10.9929 287.355 -11.679 284.424 -11.4897 281.483C-11.3004 278.543 -10.2443 275.724 -8.4549 273.384C-6.6655 271.045 -4.22317 269.288 -1.43673 268.338C1.3497 267.387 4.3551 267.285 7.19946 268.045C10.0438 268.804 12.5994 270.391 14.543 272.604C16.4867 274.817 17.7311 277.557 18.1189 280.478C18.6346 284.395 17.5768 288.357 15.1777 291.494C12.7786 294.632 9.23405 296.688 5.32206 297.212ZM1.57989 269.039C-1.06827 269.392 -3.55237 270.523 -5.55832 272.29C-7.56426 274.056 -9.00195 276.378 -9.68961 278.962C-10.3773 281.546 -10.284 284.276 -9.42159 286.808C-8.55919 289.339 -6.96639 291.557 -4.84459 293.182C-2.72279 294.807 -0.167294 295.766 2.49877 295.937C5.16483 296.108 7.82173 295.484 10.1335 294.143C12.4453 292.803 14.3081 290.807 15.4864 288.407C16.6647 286.006 17.1056 283.31 16.7533 280.66C16.2758 277.107 14.4104 273.888 11.5661 271.71C8.72171 269.531 5.13054 268.571 1.57989 269.039Z" fill="#AFCDFB"/>
<path d="M7.7538 296.209L2.46686 296.912L2.23652 282.182L-1.53125 268.666L4.55823 268.236L4.32606 281.906L7.7538 296.209Z" fill="#AFCDFB"/>
<path d="M-6.38534 293.107L-9.63574 288.876L2.99294 281.313L12.8027 271.288L16.2194 276.354L4.27629 282.985L-6.38534 293.107Z" fill="#AFCDFB"/>
<path d="M-10.4526 278.72L-8.1364 273.911L4.28388 281.811L17.6383 286.086L14.6512 291.416L3.36981 283.71L-10.4526 278.72Z" fill="#AFCDFB"/>
<path d="M-1.59355 283.075C-1.72276 282.101 -1.5604 281.11 -1.12701 280.228C-0.693624 279.346 -0.00866997 278.612 0.841238 278.12C1.69115 277.627 2.66784 277.398 3.6478 277.461C4.62777 277.524 5.56701 277.877 6.34675 278.475C7.12648 279.072 7.71169 279.888 8.02838 280.818C8.34507 281.749 8.37903 282.752 8.12593 283.702C7.87284 284.652 7.34409 285.505 6.60652 286.154C5.86895 286.803 4.95569 287.219 3.98224 287.348C3.33584 287.434 2.67886 287.392 2.04881 287.224C1.41876 287.055 0.827978 286.765 0.310212 286.368C-0.207555 285.971 -0.64217 285.476 -0.968819 284.911C-1.29547 284.346 -1.50775 283.722 -1.59355 283.075Z" fill="#AFCDFB"/>
<path d="M151.783 262.685C151.287 258.95 151.909 255.152 153.569 251.771C155.23 248.39 157.855 245.578 161.112 243.69C164.369 241.802 168.112 240.923 171.868 241.165C175.624 241.407 179.225 242.758 182.214 245.048C185.202 247.338 187.446 250.463 188.66 254.029C189.875 257.596 190.006 261.442 189.036 265.083C188.067 268.723 186.041 271.994 183.214 274.482C180.388 276.97 176.888 278.563 173.157 279.06C170.679 279.39 168.161 279.228 165.746 278.584C163.331 277.939 161.066 276.825 159.082 275.304C157.097 273.784 155.43 271.887 154.178 269.722C152.926 267.556 152.112 265.165 151.783 262.685Z" fill="#2C3A64"/>
<path d="M172.61 274.943C169.692 275.33 166.724 274.843 164.083 273.542C161.441 272.242 159.244 270.186 157.77 267.636C156.295 265.086 155.609 262.155 155.798 259.214C155.988 256.273 157.044 253.455 158.833 251.115C160.623 248.775 163.065 247.019 165.851 246.069C168.638 245.118 171.643 245.016 174.488 245.775C177.332 246.535 179.887 248.121 181.831 250.334C183.775 252.548 185.019 255.288 185.407 258.209C185.923 262.126 184.865 266.088 182.466 269.225C180.067 272.362 176.522 274.419 172.61 274.943ZM168.866 246.761C166.218 247.114 163.734 248.245 161.728 250.011C159.722 251.777 158.284 254.099 157.597 256.683C156.909 259.267 157.002 261.997 157.864 264.528C158.726 267.059 160.319 269.278 162.441 270.903C164.562 272.528 167.118 273.487 169.784 273.658C172.45 273.83 175.106 273.206 177.418 271.866C179.73 270.526 181.593 268.53 182.772 266.13C183.95 263.73 184.391 261.034 184.04 258.383C183.56 254.831 181.694 251.615 178.85 249.438C176.006 247.261 172.416 246.302 168.866 246.77V246.761Z" fill="#AFCDFB"/>
<path d="M175.04 273.94L169.753 274.644L169.524 259.915L165.755 246.398L171.846 245.966L171.612 259.636L175.04 273.94Z" fill="#F9DDBF"/>
<path d="M160.903 270.838L157.651 266.607L170.28 259.045L180.089 249.021L183.508 254.086L171.563 260.716L160.903 270.838Z" fill="#F9DDBF"/>
<path d="M156.833 256.45L159.152 251.643L171.572 259.543L184.924 263.816L181.937 269.147L170.656 261.443L156.833 256.45Z" fill="#F9DDBF"/>
<path d="M165.693 260.806C165.563 259.832 165.726 258.841 166.159 257.959C166.592 257.077 167.277 256.343 168.127 255.851C168.977 255.358 169.954 255.129 170.933 255.192C171.913 255.255 172.852 255.608 173.632 256.205C174.412 256.803 174.997 257.618 175.314 258.548C175.631 259.479 175.665 260.482 175.412 261.432C175.16 262.382 174.631 263.235 173.894 263.884C173.157 264.533 172.243 264.949 171.27 265.079C170.624 265.165 169.966 265.123 169.336 264.955C168.706 264.787 168.115 264.496 167.597 264.099C167.079 263.702 166.644 263.207 166.317 262.642C165.991 262.077 165.778 261.453 165.693 260.806Z" fill="#F9DDBF"/>
<path d="M167.323 214.403L104.546 224.285C104.253 224.331 103.955 224.318 103.668 224.247C103.381 224.176 103.111 224.049 102.873 223.872C102.636 223.695 102.437 223.472 102.287 223.217C102.137 222.961 102.04 222.678 102.001 222.385L100.072 207.86C100.036 207.589 100.054 207.313 100.126 207.048C100.197 206.784 100.321 206.536 100.488 206.32C100.656 206.104 100.866 205.923 101.104 205.789C101.342 205.654 101.605 205.568 101.877 205.536C128.781 202.334 138.084 201.858 143.858 203.029C148.949 204.063 161.25 209.462 167.601 212.179C167.835 212.278 168.03 212.45 168.157 212.669C168.283 212.889 168.335 213.144 168.304 213.396C168.272 213.648 168.159 213.882 167.982 214.064C167.805 214.246 167.574 214.365 167.323 214.403Z" fill="#AFCDFB"/>
<path d="M94.3078 206.446L97.3114 206.08L99.8287 225.024L39.2648 234.56C39.0939 234.587 38.9188 234.558 38.7659 234.477C38.613 234.396 38.4905 234.267 38.4166 234.111C38.3427 233.954 38.3214 233.778 38.356 233.608C38.3906 233.438 38.4792 233.284 38.6085 233.169C45.0764 227.434 66.9225 209.774 94.3078 206.446Z" fill="#AFCDFB"/>
<path d="M167.109 214.43H167.077L166.726 211.797L167.402 212.086C167.649 212.189 167.855 212.37 167.99 212.602C168.124 212.834 168.178 213.103 168.145 213.369C168.112 213.635 167.993 213.883 167.806 214.074C167.619 214.266 167.374 214.391 167.109 214.43Z" fill="#AFCDFB"/>
<path d="M102.41 225.459L94.8909 225.86L92.6953 205.534L99.6404 204.61L102.41 225.459Z" fill="#2B478B"/>
<path d="M149.538 219.186L146.064 219.649L143.647 201.455L147.397 203.078L149.538 219.186Z" fill="#2B478B"/>
<path d="M46 227.181L48.669 233.078L38.565 234.666C38.4372 234.686 38.3064 234.664 38.1918 234.604C38.0772 234.544 37.9846 234.449 37.9277 234.333C37.8708 234.217 37.8524 234.086 37.8753 233.958C37.8982 233.831 37.9611 233.714 38.055 233.625C40.1244 231.674 43.9799 228.173 46 227.181Z" fill="#2C3A64"/>
<path d="M46 227.181L48.669 233.078L38.565 234.666C38.4372 234.686 38.3064 234.664 38.1918 234.604C38.0772 234.544 37.9846 234.449 37.9277 234.333C37.8708 234.217 37.8524 234.086 37.8753 233.958C37.8982 233.831 37.9611 233.714 38.055 233.625C40.1244 231.674 43.9799 228.173 46 227.181Z" fill="#2C3A64"/>
<path d="M218.71 223.851L206.853 225.43C205.982 225.546 205.097 225.462 204.263 225.186C203.429 224.91 202.669 224.447 202.039 223.834L196.798 218.727C196.687 218.619 196.608 218.481 196.572 218.331C196.535 218.18 196.541 218.022 196.59 217.874C196.638 217.727 196.727 217.596 196.847 217.497C196.966 217.398 197.111 217.335 197.264 217.314L216.059 214.812L218.71 223.851Z" fill="#A9453D"/>
<path d="M147.053 263.815L24.6084 282.387L24.6835 282.883L147.129 264.312L147.053 263.815Z" fill="#1D2949"/>
<path d="M93.7779 239.241C93.8675 239.915 90.9425 240.859 87.2442 241.351C83.5459 241.843 80.4801 241.697 80.3851 241.025C80.29 240.354 83.2205 239.408 86.9206 238.915C90.6208 238.423 93.6884 238.57 93.7779 239.241Z" fill="#2C3A64"/>
<path d="M156.146 230.94C156.236 231.612 153.311 232.556 149.612 233.048C145.914 233.541 142.848 233.396 142.753 232.723C142.658 232.049 145.589 231.105 149.287 230.613C152.985 230.12 156.057 230.267 156.146 230.94Z" fill="#2C3A64"/>
<path d="M39.7749 279.761C37.3983 263.381 36.8078 251.908 36.7255 245.174C36.6378 237.854 37.1186 234.377 37.1222 234.339L37.6177 234.41C37.5994 234.545 35.742 248.424 40.2703 279.695L39.7749 279.761Z" fill="#1D2949"/>
<path d="M-53.1084 248.336C-53.1084 248.336 19.4462 213.682 75.4234 243.082C131.401 272.483 137.746 276.284 180.935 264.755C224.125 253.226 259.051 266.486 266.446 285.853C273.841 305.22 266.446 333.464 266.446 333.464H-41.4102L-53.1084 248.336Z" fill="#94B3F7"/>
<path d="M-27.001 196.454C-27.001 196.454 15.9197 173.647 48.4878 182.052C81.0558 190.457 67.5771 169.608 66.4235 163.896C65.27 158.185 109.271 170.957 116.66 162.551C124.05 154.146 100.513 152.181 104.394 150.984C108.275 149.787 131.333 162.209 134.883 159.137C138.433 156.064 134.402 143.512 116.637 141.42C98.8709 139.329 27.3236 138.807 -27.001 196.454Z" fill="#E9F0FF"/>
<path d="M468.126 209.591C467.955 209.932 467.56 210.172 466.874 210.263C461.951 210.929 452.991 214.425 444.482 219.57C435.972 224.716 455.006 220.253 454.11 225.117C453.214 229.981 429.248 228.995 417.16 237.971C405.073 246.947 378.196 246.329 374.314 248.12C370.433 249.912 379.837 250.664 374.762 253.954C369.687 257.245 345.202 246.777 339.752 246.832C334.302 246.887 347.589 248.571 333.856 249.028C320.123 249.486 289.014 234.474 289.014 234.474L289.093 234.458C342.946 249.841 372.629 247.69 393.625 240.116C395.268 239.524 396.861 238.901 398.404 238.246C399.185 237.915 399.955 237.578 400.714 237.234L400.862 237.166C401.716 236.776 402.559 236.378 403.393 235.975C404.805 235.285 406.185 234.578 407.533 233.852C408.173 233.511 408.813 233.164 409.435 232.816C427.804 222.597 441.259 210.076 468.126 209.591Z" fill="white"/>
<path d="M392.259 227.156L390.018 227.591L390.003 227.408L389.519 221.294C389.511 221.199 389.539 221.105 389.597 221.029C389.654 220.953 389.738 220.901 389.831 220.883C389.856 220.881 389.88 220.881 389.905 220.883C390.043 220.872 390.182 220.909 390.296 220.989C390.411 221.068 390.494 221.184 390.533 221.318L392.259 227.156Z" fill="#233862"/>
<path d="M389.97 226.193L389.892 226.21L389.526 221.298C389.519 221.203 389.546 221.108 389.604 221.032C389.662 220.956 389.745 220.904 389.839 220.886C389.863 220.885 389.888 220.885 389.912 220.886C389.936 220.899 389.959 220.914 389.981 220.93C390.102 221.019 390.187 221.149 390.219 221.296L390.921 224.744C390.984 225.062 390.92 225.392 390.742 225.663C390.564 225.934 390.287 226.125 389.97 226.193Z" fill="#2B478B"/>
<path d="M417.16 347.868H412.678L395.263 258.108L395.119 257.36L395.023 256.88L394.532 254.342L396.526 253.952L398.852 253.502L399.237 255.486L399.343 256.041L399.583 257.268L417.16 347.868Z" fill="#233862"/>
<path d="M414.747 347.868H412.678L395.263 258.108L395.119 257.36L395.023 256.881L394.532 254.342L396.526 253.953L397.02 256.493V256.494L397.025 256.524L397.257 257.721L414.747 347.868Z" fill="#2B478B"/>
<path d="M399.605 228.719C400.064 231.079 396.894 233.68 392.527 234.529C392.192 234.593 391.863 234.646 391.536 234.686C387.583 235.184 384.212 233.973 383.79 231.793C383.368 229.614 386.04 227.231 389.892 226.21C390.21 226.126 390.536 226.051 390.868 225.986C395.238 225.136 399.148 226.36 399.605 228.719Z" fill="#233862"/>
<path d="M395.512 229.515C395.878 231.416 394.221 233.435 391.536 234.686C387.583 235.184 384.212 233.973 383.79 231.793C383.368 229.614 386.04 227.231 389.892 226.21C392.85 226.365 395.143 227.606 395.512 229.515Z" fill="#2B478B"/>
<path d="M404.287 256.353L390.524 259.029L381.135 236.586L403.859 232.168L404.287 256.353Z" fill="#2B478B"/>
<path d="M404.738 230.182L379.562 235.077L379.997 237.32L405.173 232.426L404.738 230.182Z" fill="#233862"/>
<path d="M395.389 231.999L379.562 235.076L379.998 237.32L395.824 234.243L395.389 231.999Z" fill="#2B478B"/>
<path d="M382.983 237.409L402.389 233.636L402.678 255.395L391.534 257.559L382.983 237.409Z" fill="#5072B5"/>
<path d="M403.135 230.481L381.176 234.75L382.476 231.837L400.93 228.248L403.135 230.481Z" fill="#233862"/>
<path d="M397.728 231.531L381.176 234.75L382.476 231.837L395.523 229.301L397.728 231.531Z" fill="#2B478B"/>
<path d="M61.8954 254.78C61.8954 254.78 64.272 253.228 64.6851 252.296C65.0983 251.365 66.7527 249.659 66.1842 249.348C65.6156 249.037 64.5389 250.435 63.8588 250.28C63.1787 250.124 62.6267 245.315 61.8954 245.262C61.1641 245.209 59.3177 246.089 59.3177 247.901C59.3177 249.712 59.8863 254.366 59.3177 255.244C58.7492 256.123 61.8954 254.78 61.8954 254.78Z" fill="#FFB27D"/>
<path d="M125.368 256.062C125.335 255.964 125.499 252.144 126.739 250.905C127.978 249.667 130.578 247.794 130.978 248.587C131.379 249.379 129.216 251.689 129.282 252.505C129.348 253.321 130.717 251.264 130.847 251.753C130.976 252.241 129.869 255.442 129.119 255.671C128.37 255.9 128.194 258.348 128.194 258.348L124.52 257.499L125.368 256.062Z" fill="#FFB27D"/>
<path d="M67.0871 304.309C82.5475 318.766 79.8309 291.231 79.8309 291.231C79.8309 291.231 73.9425 288.615 72.087 288.615C70.2314 288.615 68.8731 283.441 62.992 274.82L63.4856 254.258L59.3431 253.672C58.387 253.89 55.4218 268.77 53.7911 272.412C53.7911 272.415 53.4858 291.592 67.0871 304.309Z" fill="#FFB27D"/>
<path d="M80.2495 263.61L80.2719 263.578C80.2617 263.587 80.254 263.598 80.2495 263.61Z" fill="#7F2722"/>
<path d="M128.704 257.054C128.322 260.469 127.146 264.168 125.624 267.692C124.171 271.028 122.445 274.238 120.463 277.289C120.452 277.347 120.251 278.368 119.759 280.034C115.582 294.608 105.938 303.743 103.878 305.09C103.584 305.281 103.316 305.509 103.081 305.769C101.701 307.29 101.723 309.462 101.723 309.462C101.906 313.761 101.918 319.058 101.931 324.332H67.2534C67.4198 322.213 67.5788 320.356 67.6666 318.993C67.6666 318.993 67.4052 311.387 67.5094 304.693C67.5807 299.891 67.8384 295.556 68.513 294.844C70.4673 292.774 78.5677 291.429 79.6993 291.25L79.8327 291.228C84.4853 293.847 90.7558 290.313 90.7558 290.313C90.8984 290.337 91.0373 290.368 91.1744 290.397C91.6351 290.302 97.5125 289.057 99.2584 289.42C101.072 289.799 103.463 285.011 110.969 277.777C110.969 277.777 121.008 260.881 125.139 256.073C125.17 256.073 128.704 256.945 128.704 257.054Z" fill="#FFB27D"/>
<path d="M68.6157 282.308C68.6157 282.308 60.2978 291.941 60.0894 300.685C60.0894 300.685 65.2556 304.047 65.369 305.952C65.4823 307.857 66.6487 337 66.6487 337H102.059C102.059 337 102.094 309.987 104.109 307.522C106.123 305.057 111.275 299.115 111.275 299.115C111.275 299.115 110.591 289.253 103.935 285.33C103.935 285.33 99.9388 288.66 97.1125 289.235C94.2863 289.81 78.5315 290.558 77.8532 290.122C77.175 289.687 68.6157 282.308 68.6157 282.308Z" fill="#F99746"/>
<path d="M81.6388 293.212C83.7613 294.331 90.2201 292.454 90.5217 291.382C90.8599 290.185 89.4248 288.258 90.2639 282.049C90.2749 281.968 89.6606 282.083 88.7338 282.301C85.9751 282.956 80.4286 284.53 80.1818 284.601C80.1818 284.601 80.1142 285.904 79.8857 288.243C79.8674 288.45 79.8455 288.666 79.8235 288.889C79.7943 289.162 79.7668 289.453 79.7321 289.753C79.4689 292.19 81.6388 293.212 81.6388 293.212Z" fill="#FFB27D"/>
<path d="M79.8784 288.25C83.9972 289.196 90.1452 283.108 90.1452 283.108C89.7098 282.785 89.2365 282.516 88.7357 282.308C85.9771 282.963 80.4305 284.537 80.1837 284.609C80.1837 284.609 80.1069 285.912 79.8784 288.25Z" fill="#ED975D"/>
<path d="M78.4803 284.279C79.7332 284.699 81.0229 285 82.3322 285.178C85.4894 285.604 89.6447 285.361 90.9464 281.529C93.1401 275.091 95.95 271.231 89.4839 268.603C86.0214 267.196 83.8167 267.121 82.3048 267.657C80.9977 268.122 80.2262 269.048 79.643 269.963C78.3908 271.934 75.8643 283.152 78.4803 284.279Z" fill="#FFB27D"/>
<path d="M85.0887 271.233C86.6956 271.949 86.9845 274.65 87.0137 275.506C87.043 276.363 87.1563 277.087 89.3391 276.575C89.5997 276.487 89.8841 276.505 90.1325 276.623C91.0374 277.161 89.8802 279.768 89.531 280.332C89.531 280.332 89.0283 282.2 90.1435 283.11C90.2787 283.218 92.4688 284.177 97.7485 276.09C98.5766 274.82 99.37 271.962 98.0885 269.207C96.807 266.453 91.8308 264.296 87.0521 263.578C85.2916 263.315 80.4544 264.395 79.5842 265.957C78.1254 268.583 83.4781 270.518 85.0887 271.233Z" fill="#A9453D"/>
<path d="M80.3118 280.738C80.1491 281.271 79.7634 281.626 79.4526 281.531C79.1418 281.435 79.0193 280.927 79.1802 280.394C79.3411 279.862 79.7287 279.505 80.0395 279.6C80.3502 279.695 80.4727 280.206 80.3118 280.738Z" fill="white"/>
<path d="M221.414 319.571C221.414 319.571 240.459 311.722 270.354 318.169C300.25 324.616 337.509 312.509 344.576 318.394C351.644 324.279 350.975 332.831 350.975 332.831H219.971L221.414 319.571Z" fill="#AEC3FF"/>
<path d="M462.697 289.398L408.42 339.834L406.722 335.677L398.643 338.85L398.938 335.922L396.256 333.007L452.822 276.813L460.184 279.951L458.829 282.647L463.306 286.162L462.697 289.398Z" fill="#F99746"/>
<path d="M195.46 282.01L291.669 249.636V255.206L303.713 255.358L301.797 258.582L303.713 263.185L201.54 301.091L193.729 294.031L196.884 291.575L192.978 285.438L195.46 282.01Z" fill="#F99746"/>
<path d="M286.438 293.345C286.438 293.345 289.575 280.219 288.171 276.956C286.767 273.693 271.431 261.909 271.431 261.909L268.247 264.288C268.247 264.288 276.257 274.26 275.674 276.632C275.091 279.003 276.83 292.071 276.83 292.071L286.438 293.345Z" fill="#963333"/>
<path d="M281.217 288.843L278.197 292.091L271.647 292.985C271.567 292.457 271.293 290.256 271.044 288.261C271.031 288.144 271.016 288.025 271.002 287.912L270.614 284.755L275.536 280.301L277.364 278.641C277.364 278.676 279.643 281.285 279.609 281.551C278.779 288.051 281.217 288.843 281.217 288.843Z" fill="#FFB27D"/>
<path d="M271.331 289.054C271.448 288.984 278.782 285.718 279.649 285.882C280.515 286.047 281.217 287.586 281.217 287.586L269.106 292.068C269.106 292.068 269.824 289.938 271.331 289.054Z" fill="#963333"/>
<path d="M298.667 337.589C298.155 343.668 276.715 347.224 270.455 342.598C269.744 342.069 269.336 339.229 269.066 335.364C268.541 327.81 268.545 316.341 267.843 310.576C267.535 307.81 267.479 305.022 267.675 302.246C267.891 298.82 268.369 295.415 269.106 292.062C269.106 292.062 279.174 287.264 281.217 287.582C291.067 289.118 299.186 331.515 298.667 337.589Z" fill="#B64C41"/>
<path d="M277.444 280.947C276.896 283.509 272.786 286.927 271.046 288.267C271.033 288.15 271.018 288.031 271.004 287.917L270.616 284.761L275.538 280.306C276.804 279.862 277.675 279.891 277.444 280.947Z" fill="#FCA56B"/>
<path d="M269.492 284.629C269.492 284.629 279.268 287.681 281.075 281.558C282.881 275.435 285.358 271.703 279.192 269.495C273.025 267.286 271.119 269.264 270.02 271.162C268.921 273.059 266.996 283.677 269.492 284.629Z" fill="#FFB27D"/>
<path d="M270.404 270.571C270.404 270.571 271.027 277.708 272.499 277.389C273.971 277.071 275.307 276.84 275.091 278.998C274.876 281.155 273.336 285.161 277.874 285.542C282.411 285.923 288.431 272.673 287.184 270.455C283.588 264.056 265.205 262.766 270.404 270.571Z" fill="#163560"/>
<path d="M248.951 290.498C245.327 288.765 234.459 282.318 234.459 282.318L231.94 285.39C231.94 285.39 240.918 298.539 248.479 300.905C256.04 303.271 271.087 304.382 271.087 304.382L275.393 289.306C275.393 289.306 252.569 292.232 248.951 290.498Z" fill="#B64C41"/>
<path d="M234.459 282.323C234.459 282.323 234.697 276.205 234.066 276.101C233.436 275.997 232.969 279.351 232.49 279.212C232.011 279.073 230.845 273.711 229.971 273.868C229.097 274.026 227.924 278.756 228.633 280.255C229.342 281.754 231.94 285.396 231.94 285.396L234.459 282.323Z" fill="#FFB27D"/>
<path d="M268.247 264.285C268.247 264.285 262.132 264.232 262.057 263.597C261.982 262.962 265.348 262.649 265.236 262.169C265.125 261.69 259.825 260.257 260.024 259.397C260.223 258.537 264.997 257.58 266.459 258.359C267.922 259.139 271.432 261.909 271.432 261.909L268.247 264.285Z" fill="#FFB27D"/>
<path d="M473.977 300.91V347.868H-60.4062V293.44C-60.4062 293.44 -18.767 236.194 19.6821 246.592C40.6269 252.265 37.0036 271.48 39.243 288.216C41.1242 302.204 47.0875 314.463 74.9298 315.629C136.071 318.191 173.358 298.934 206.787 316.297C220.642 323.492 233.295 321.787 248.346 317.761C269.611 312.088 295.678 301.84 336.725 305.644C406.839 312.132 461.158 328.697 473.977 300.91Z" fill="#7187E2"/>
<path d="M379.949 296.571L342.46 286.375L334.062 317.318L371.55 327.514L379.949 296.571Z" fill="#ED823A"/>
<path d="M361.205 291.468L323.717 281.273L315.318 312.216L352.807 322.412L361.205 291.468Z" fill="#FF9E55"/>
<path d="M373.686 319.637L367.746 318.023L368.722 316.491L368.523 315.153L374.464 316.767L373.686 319.637Z" fill="#DD732C"/>
<path d="M358.631 301.026L352.691 299.41L353.668 297.88L353.468 296.54L359.41 298.156L358.631 301.026Z" fill="#FFB27D"/>
<path d="M359.41 298.156L365.352 299.772L364.374 301.304L364.573 302.642L358.631 301.026L359.41 298.156Z" fill="#DD732C"/>
<path d="M317.381 304.684L323.323 306.3L322.345 307.831L322.544 309.169L316.603 307.553L317.381 304.684Z" fill="#FFB27D"/>
<path d="M404.938 327.866C403.658 326.496 346.825 303.988 315.698 314.483C284.571 324.978 264.721 329.923 264.721 329.923L377.576 341.635L404.938 327.866Z" fill="#7187E2"/>
<path d="M-26.8403 320.159L9.49609 311.271L2.17577 281.28L-34.1606 290.167L-26.8403 320.159Z" fill="#C3DAFC"/>
<path d="M-8.67187 315.712L27.6646 306.825L20.3442 276.834L-15.9922 285.721L-8.67187 315.712Z" fill="#D4E4F8"/>
<path d="M25.8774 299.547L20.1206 300.956L21.0219 302.453L20.7988 303.736L26.5556 302.329L25.8774 299.547Z" fill="#618DC1"/>
<path d="M19.0534 278.775L8.6123 281.361L9.61748 285.427L20.0585 282.841L19.0534 278.775Z" fill="white"/>
<path d="M-51.0938 321.781C-49.9658 320.564 0.53249 300.568 28.1865 309.886C55.8406 319.205 73.4765 323.602 73.4765 323.602L-26.787 334.013L-51.0938 321.781Z" fill="#7187E2"/>
<path d="M188.833 327.33C188.468 331.356 148.883 318.063 143.21 317.614C137.538 317.166 145.883 320.581 147.073 326.452C148.263 332.322 96.4818 326.283 67.2537 324.336C38.0256 322.389 39.2505 288.21 39.2505 288.21C41.1243 302.204 47.0877 314.463 74.93 315.629C136.072 318.191 173.358 298.934 206.787 316.297C220.643 323.492 233.295 321.787 248.346 317.761C219.869 330.609 186.504 312.82 175.011 314.621C163.517 316.421 189.191 323.295 188.833 327.33Z" fill="#E9F0FF"/>
<path d="M-50.0264 280.974C-50.0264 280.974 -22.3979 234.824 1.44998 233.828C25.2979 232.832 40.4969 242.332 31.764 241.942C23.031 241.552 13.9836 244.438 19.6837 246.59C25.3838 248.742 34.4166 253.208 23.5721 254.553C12.7277 255.898 -6.102 253.751 -12.7911 261.194C-19.4802 268.636 1.20319 258.507 -5.12578 265.952C-11.4548 273.396 -29.2516 271.308 -50.0264 280.974Z" fill="#E9F0FF"/>
<rect width="414" height="692" fill="url(#paint0_linear)"/>
</svg>
