<svg id="Layer_1" data-name="Layer 1" xmlns="http://www.w3.org/2000/svg" viewBox="0 0 40 40">
  <title>flag</title>
  <path d="M20,0h0A20,20,0,0,1,40,20h0A20,20,0,0,1,20,40h0A20,20,0,0,1,0,20H0A20,20,0,0,1,20,0Z" transform="translate(0 0)" fill="#29319f" opacity="0.1" style="isolation: isolate"/>
  <path d="M27.1,11.72a7.8,7.8,0,0,0-7.22,0,6.16,6.16,0,0,1-5.27.21v-1.1a.81.81,0,1,0-1.61,0V28.53a.81.81,0,0,0,1.61,0V21.69a7.89,7.89,0,0,0,2.46.4,7.59,7.59,0,0,0,3.55-.89,6.14,6.14,0,0,1,5.67,0,.83.83,0,0,0,.81,0,.81.81,0,0,0,.4-.7V12.42A.8.8,0,0,0,27.1,11.72Z" transform="translate(0 0)" fill="#29319f"/>
</svg>
