<svg id="Layer_1" data-name="Layer 1" xmlns="http://www.w3.org/2000/svg" xmlns:xlink="http://www.w3.org/1999/xlink" viewBox="0 0 389.7 144.9">
  <defs>
    <linearGradient id="linear-gradient" x1="-4.61" y1="698.6" x2="378.21" y2="878.97" gradientTransform="translate(0 -720)" gradientUnits="userSpaceOnUse">
      <stop offset="0" stop-color="#fff3e9"/>
      <stop offset="1" stop-color="#fc9d45"/>
    </linearGradient>
  </defs>
  <title>Frame</title>
  <g>
    <path d="M7.4-4.3H363.5c9.3,0,16.8,8.5,16.8,19V121.6c0,10.5-7.5,19-16.8,19H7.4c-9.3,0-16.8-8.5-16.8-19V14.7C-9.4,4.2-1.8-4.3,7.4-4.3Z" transform="translate(9.4 4.3)" style="fill: url(#linear-gradient)"/>
    <path d="M96.2,65.8c-41.7,0-75.5,33.5-75.5,74.8H171.8C171.7,99.3,137.9,65.8,96.2,65.8Z" transform="translate(9.4 4.3)" style="fill: #fefeff;opacity: 0.30000001192092896;isolation: isolate"/>
    <ellipse cx="51.6" cy="49.9" rx="8.4" ry="8.3" style="fill: #fefeff;opacity: 0.30000001192092896;isolation: isolate"/>
    <ellipse cx="176.3" cy="78.4" rx="8.4" ry="8.3" style="fill: #fefeff;opacity: 0.30000001192092896;isolation: isolate"/>
    <circle cx="140.9" cy="11.3" r="4.2" style="fill: #fefeff;opacity: 0.30000001192092896;isolation: isolate"/>
    <circle cx="19.8" cy="106.3" r="4.2" style="fill: #fefeff;opacity: 0.30000001192092896;isolation: isolate"/>
  </g>
</svg>
