<svg id="Layer_1" data-name="Layer 1" xmlns="http://www.w3.org/2000/svg" viewBox="0 0 38 38">
  <title>logout_icon</title>
  <path d="M0,12A12,12,0,0,1,12,0H26A12,12,0,0,1,38,12V26A12,12,0,0,1,26,38H12A12,12,0,0,1,0,26Z" transform="translate(0 0)" fill="#fda758" opacity="0.1" style="isolation: isolate"/>
  <path d="M18.51,9A9.5,9.5,0,0,1,28,17.64H20.24V15.05a.86.86,0,0,0-1.47-.62l-3.46,3.46a.86.86,0,0,0,0,1.22l3.46,3.46A.86.86,0,0,0,20.24,22V19.36H28A9.5,9.5,0,1,1,18.51,9Z" transform="translate(0 0)" fill="#fda758"/>
</svg>
