<svg id="Layer_1" data-name="Layer 1" xmlns="http://www.w3.org/2000/svg" xmlns:xlink="http://www.w3.org/1999/xlink" viewBox="0 0 38 38">
  <defs>
    <clipPath id="clip-path" transform="translate(0 0)">
      <rect x="9" y="9" width="19" height="19" fill="none"/>
    </clipPath>
  </defs>
  <title>password_icon</title>
  <path d="M0,12A12,12,0,0,1,12,0H26A12,12,0,0,1,38,12V26A12,12,0,0,1,26,38H12A12,12,0,0,1,0,26Z" transform="translate(0 0)" fill="#fda758" opacity="0.1" style="isolation: isolate"/>
  <g clip-path="url(#clip-path)">
    <g>
      <path d="M17.65,24.85l1.58-1.57-3.15-3.15-4.73,4.72L14.5,28l1.58-1.57-.79-.79,1.57-1.58Z" transform="translate(0 0)" fill="#fc9d45"/>
      <path d="M25.9,10.3a4.45,4.45,0,0,0-7,5.4L9.78,24.85l1.57,1.58,9.15-9.15a4.45,4.45,0,0,0,5.4-7Zm-4.33,4.33a1.67,1.67,0,1,1,2.36,0A1.65,1.65,0,0,1,21.57,14.63Z" transform="translate(0 0)" fill="#fda758"/>
      <path d="M25.9,16.6a4.44,4.44,0,0,1-5.4.68l-9.15,9.15-.78-.79,11-11a1.67,1.67,0,0,0,2.36-2.36l2-2a4.45,4.45,0,0,1,0,6.3Z" transform="translate(0 0)" fill="#fdbf00"/>
    </g>
  </g>
</svg>
