<svg width="374" height="146" viewBox="0 0 374 146" fill="none" xmlns="http://www.w3.org/2000/svg">
<rect width="374" height="146" rx="12" fill="white"/>
<g style="mix-blend-mode:darken">
<mask id="mask0" mask-type="alpha" maskUnits="userSpaceOnUse" x="0" y="0" width="374" height="146">
<rect width="374" height="146" rx="12" fill="#FDA758"/>
</mask>
<g mask="url(#mask0)">
<mask id="mask1" mask-type="alpha" maskUnits="userSpaceOnUse" x="145" y="-61" width="298" height="415">
<rect x="145" y="-61" width="298" height="414.646" rx="10" fill="white"/>
</mask>
<g mask="url(#mask1)">
<rect width="7.13553" height="115.411" rx="3.56776" transform="matrix(-0.992833 -0.119512 -0.158086 0.987425 362.406 107.158)" fill="#5B3D33"/>
<rect width="7.13553" height="115.411" rx="3.56776" transform="matrix(0.992833 -0.119512 0.158086 0.987425 246.677 107.158)" fill="#5B3D33"/>
<path d="M320.316 31.7437C320.422 40.7199 310.979 58.0488 301.041 58.1488C291.102 58.2488 280.1 46.616 279.471 33.2032C278.537 13.2922 281.347 3.86774 300.407 4.17465C319.467 4.48156 320.211 22.7676 320.316 31.7437Z" fill="#F6C8A6"/>
<path d="M299.741 22.0526C286.632 22.6242 281.41 24.6991 279.329 26.1972C279.306 24.2279 278.631 11.4324 281.738 7.95431C284.752 4.58014 296.32 1.89882 300.029 1.86149C304.226 1.81925 315.931 5.56169 317.41 7.59531C319.543 10.5283 319.484 20.3767 320.229 24.3083C317.064 22.863 308.132 21.6868 299.741 22.0526Z" fill="#E45A5A"/>
<path d="M299.331 21.4002C286.805 21.5263 278.297 24.4389 274.345 27.3056C274.392 31.2629 282.852 24.393 299.364 24.2268C315.875 24.0607 322.768 29.0798 322.735 26.2532C320.993 23.4438 311.857 21.2742 299.331 21.4002Z" fill="#D74040"/>
<path d="M317.553 69.403C311.833 75.8996 292.299 74.6982 285.281 69.4029C289.823 61.3083 289.312 56.1121 289.262 51.8199C295.101 55.5173 305.489 54.0361 312.419 51.8199C313.049 56.1063 312.419 64.1287 317.553 69.403Z" fill="#E8B896"/>
<path d="M281.174 44.6991C280.328 42.7448 279.418 36.613 279.383 33.6185C279.451 39.4314 285.601 44.6545 287.814 44.6323C291.688 44.5933 291.657 41.9511 293.864 41.4004C296.072 40.8496 302.718 41.3112 305.485 41.2834C308.252 41.2556 311.066 45.2439 315.484 44.3538C317.692 43.9088 319.633 36.3845 320.328 32.678C320.176 35.4982 319.768 41.5625 319.345 43.2579C318.552 46.4369 312.835 54.422 311.746 56.0185C310.658 57.615 303.483 59.2727 301.269 59.295C299.056 59.3173 293.509 58.3161 290.171 56.7642C286.832 55.2122 282.311 47.3302 281.174 44.6991Z" fill="#59422D"/>
<path d="M296.56 45.5558C295.206 45.5694 293.758 47.1507 293.206 48.199C293.23 50.2875 297.192 51.294 300.577 51.26C303.962 51.2259 308.115 49.6155 308.097 48.0491C308.085 47.0047 305.721 45.4637 304.459 45.4763L296.56 45.5558Z" fill="#F6C8A6"/>
<path d="M302.505 71.0212C294.673 71.0212 290.065 69.5334 286.045 67.4389C251.86 67.4388 248.997 78.4592 249.331 106.922C249.585 128.553 261.81 157.151 256.676 191.78C283.814 199.249 330.021 200.607 340.29 191.78C336.622 143.571 355.606 135.741 352.537 93.0735C351.434 77.738 334.291 67.2656 317.065 67.4389C313.839 69.1318 309.722 71.0212 302.505 71.0212Z" fill="#CF3535"/>
<path d="M271.913 102.995C279.83 87.3806 279.633 69.318 266.579 69.3179C253.525 69.3179 239.887 78.3813 232.639 91.6742C226.151 103.575 219.917 127.93 218.618 142.738C217.319 157.546 232.321 156.669 242.208 144.719C254.552 129.8 263.995 118.609 271.913 102.995Z" fill="#CF3535"/>
<path d="M291.042 79.2648C290.788 82.158 289.31 88.2313 286.296 91.4886C283.281 94.7459 280.012 97.3198 275.988 100.135C276.761 104.477 278.544 109.261 282.84 111.713C289.641 109.541 291.917 111.108 295.449 111.51C300.217 112.051 309.06 109.456 312.584 107.566C316.107 105.676 314.441 91.2847 312.006 87.865C310.231 85.3726 303.685 88.2285 296.884 90.401C296.793 88.6453 297.519 84.8443 297.104 81.9174C296.586 78.2587 291.526 73.7564 291.042 79.2648Z" fill="#F6C8A6"/>
<path d="M360.566 83.8196C352.5 70.3397 338.982 68.714 330.52 68.7139C322.057 68.7139 325.787 86.9397 330.52 99.0748C336.312 113.929 347.314 136.135 357.387 150.414C364.391 160.343 379.178 144.262 377.786 135.032C376.184 124.404 369.769 99.2009 360.566 83.8196Z" fill="#CF3535"/>
<path d="M363.448 154.092C369.526 153.307 379.78 143.695 378.65 136.194C377.047 125.566 372.43 122.34 362.395 124.274C357.043 125.305 351.967 128.17 352.031 137.722C352.07 143.71 357.371 154.877 363.448 154.092Z" fill="#E24B4B"/>
<path d="M284.835 110.979C281.901 110.576 277.364 103.38 277.195 99.0624C262.861 105.683 221.855 125.611 219.02 138.785C216.434 150.805 221.934 154.65 228.419 155.541C236.621 156.667 242.905 153.135 248.448 147.957C253.473 143.265 267.991 128.192 284.835 110.979Z" fill="#E24B4B"/>
<path d="M379.877 102.35C380.283 105.041 376.817 118.517 373.563 125.109C370.094 132.414 366.691 154.111 363.116 155.259C359.541 156.406 335.199 154.066 319.581 149.912C319.226 137.616 329.901 123.894 332.564 96.8065C351.327 101.925 379.37 98.987 379.877 102.35Z" fill="#E8E8E8"/>
<path d="M353.561 141.741C347.663 138.297 352.198 127.662 353.056 123.275C353.913 118.887 362.839 127.714 372.313 125.063C374.591 124.426 374.66 120.483 377.64 120.098C380.62 119.713 382.434 123.192 381.885 128.103C380.915 136.782 376.867 140.156 371.968 142.927C366.038 146.282 358.558 144.66 353.561 141.741Z" fill="#F6C8A6"/>
</g>
</g>
</g>
</svg>
